<svg xmlns="http://www.w3.org/2000/svg" viewBox="0 0 312.29 223.72"><defs><style>.cls-1{opacity:0.44;}.cls-2{fill:#999;}</style></defs><title>Asset 25</title><g id="Layer_2" data-name="Layer 2"><g id="Layer_1-2" data-name="Layer 1"><g class="cls-1"><ellipse class="cls-2" cx="35.23" cy="63.74" rx="5.28" ry="5.54"/><ellipse class="cls-2" cx="62.47" cy="63.74" rx="5.28" ry="5.54"/><ellipse class="cls-2" cx="89.7" cy="63.74" rx="5.28" ry="5.54"/><ellipse class="cls-2" cx="116.93" cy="63.74" rx="5.28" ry="5.54"/><ellipse class="cls-2" cx="144.16" cy="63.74" rx="5.28" ry="5.54"/><ellipse class="cls-2" cx="171.4" cy="63.74" rx="5.28" ry="5.54"/><ellipse class="cls-2" cx="198.63" cy="63.74" rx="5.28" ry="5.54"/><ellipse class="cls-2" cx="225.86" cy="63.74" rx="5.28" ry="5.54"/><ellipse class="cls-2" cx="253.09" cy="63.74" rx="5.28" ry="5.54"/><ellipse class="cls-2" cx="35.23" cy="89.48" rx="5.28" ry="5.54"/><ellipse class="cls-2" cx="62.47" cy="89.48" rx="5.28" ry="5.54"/><ellipse class="cls-2" cx="89.7" cy="89.48" rx="5.28" ry="5.54"/><ellipse class="cls-2" cx="116.93" cy="89.48" rx="5.28" ry="5.54"/><ellipse class="cls-2" cx="144.16" cy="89.48" rx="5.28" ry="5.54"/><ellipse class="cls-2" cx="171.4" cy="89.48" rx="5.28" ry="5.54"/><ellipse class="cls-2" cx="198.63" cy="89.48" rx="5.28" ry="5.54"/><ellipse class="cls-2" cx="225.86" cy="89.48" rx="5.28" ry="5.54"/><ellipse class="cls-2" cx="253.09" cy="89.48" rx="5.28" ry="5.54"/><ellipse class="cls-2" cx="35.23" cy="115.22" rx="5.28" ry="5.54"/><ellipse class="cls-2" cx="62.47" cy="115.22" rx="5.28" ry="5.54"/><ellipse class="cls-2" cx="89.7" cy="115.22" rx="5.28" ry="5.54"/><ellipse class="cls-2" cx="116.93" cy="115.22" rx="5.28" ry="5.54"/><ellipse class="cls-2" cx="144.16" cy="115.22" rx="5.28" ry="5.54"/><ellipse class="cls-2" cx="171.4" cy="115.22" rx="5.28" ry="5.54"/><ellipse class="cls-2" cx="198.63" cy="115.22" rx="5.28" ry="5.54"/><ellipse class="cls-2" cx="225.86" cy="115.22" rx="5.28" ry="5.54"/><ellipse class="cls-2" cx="253.09" cy="115.22" rx="5.28" ry="5.54"/><ellipse class="cls-2" cx="35.23" cy="140.96" rx="5.28" ry="5.54"/><ellipse class="cls-2" cx="62.47" cy="140.96" rx="5.28" ry="5.54"/><ellipse class="cls-2" cx="89.7" cy="140.96" rx="5.28" ry="5.54"/><ellipse class="cls-2" cx="116.93" cy="140.96" rx="5.28" ry="5.54"/><ellipse class="cls-2" cx="144.16" cy="140.96" rx="5.28" ry="5.54"/><ellipse class="cls-2" cx="171.4" cy="140.96" rx="5.28" ry="5.54"/><ellipse class="cls-2" cx="198.63" cy="140.96" rx="5.28" ry="5.54"/><ellipse class="cls-2" cx="225.86" cy="140.96" rx="5.28" ry="5.54"/><ellipse class="cls-2" cx="253.09" cy="140.96" rx="5.28" ry="5.54"/><ellipse class="cls-2" cx="35.23" cy="166.7" rx="5.28" ry="5.54"/><ellipse class="cls-2" cx="62.47" cy="166.7" rx="5.28" ry="5.54"/><ellipse class="cls-2" cx="89.7" cy="166.7" rx="5.28" ry="5.54"/><ellipse class="cls-2" cx="116.93" cy="166.7" rx="5.28" ry="5.54"/><ellipse class="cls-2" cx="144.16" cy="166.7" rx="5.28" ry="5.54"/><ellipse class="cls-2" cx="171.4" cy="166.7" rx="5.28" ry="5.54"/><ellipse class="cls-2" cx="198.63" cy="166.7" rx="5.28" ry="5.54"/><ellipse class="cls-2" cx="225.86" cy="166.7" rx="5.28" ry="5.54"/><ellipse class="cls-2" cx="253.09" cy="166.7" rx="5.28" ry="5.54"/><ellipse class="cls-2" cx="35.23" cy="192.44" rx="5.28" ry="5.54"/><ellipse class="cls-2" cx="62.47" cy="192.44" rx="5.28" ry="5.54"/><ellipse class="cls-2" cx="89.7" cy="192.44" rx="5.28" ry="5.54"/><ellipse class="cls-2" cx="116.93" cy="192.44" rx="5.28" ry="5.54"/><ellipse class="cls-2" cx="144.16" cy="192.44" rx="5.28" ry="5.54"/><ellipse class="cls-2" cx="171.4" cy="192.44" rx="5.28" ry="5.54"/><ellipse class="cls-2" cx="198.63" cy="192.44" rx="5.28" ry="5.54"/><ellipse class="cls-2" cx="225.86" cy="192.44" rx="5.28" ry="5.54"/><ellipse class="cls-2" cx="253.09" cy="192.44" rx="5.28" ry="5.54"/><ellipse class="cls-2" cx="35.23" cy="218.17" rx="5.28" ry="5.54"/><ellipse class="cls-2" cx="5.28" cy="63.74" rx="5.28" ry="5.54"/><ellipse class="cls-2" cx="35.23" cy="34.64" rx="5.28" ry="5.54"/><ellipse class="cls-2" cx="62.47" cy="34.64" rx="5.28" ry="5.54"/><ellipse class="cls-2" cx="89.7" cy="34.64" rx="5.28" ry="5.54"/><ellipse class="cls-2" cx="116.93" cy="34.64" rx="5.28" ry="5.54"/><ellipse class="cls-2" cx="144.16" cy="34.64" rx="5.28" ry="5.54"/><ellipse class="cls-2" cx="171.4" cy="34.64" rx="5.28" ry="5.54"/><ellipse class="cls-2" cx="198.63" cy="34.64" rx="5.28" ry="5.54"/><ellipse class="cls-2" cx="225.86" cy="34.64" rx="5.28" ry="5.54"/><ellipse class="cls-2" cx="253.09" cy="34.64" rx="5.28" ry="5.54"/><ellipse class="cls-2" cx="5.28" cy="34.64" rx="5.28" ry="5.54"/><ellipse class="cls-2" cx="35.23" cy="5.54" rx="5.28" ry="5.54"/><ellipse class="cls-2" cx="62.47" cy="5.54" rx="5.28" ry="5.54"/><ellipse class="cls-2" cx="89.7" cy="5.54" rx="5.28" ry="5.54"/><ellipse class="cls-2" cx="116.93" cy="5.54" rx="5.28" ry="5.54"/><ellipse class="cls-2" cx="144.16" cy="5.54" rx="5.28" ry="5.54"/><ellipse class="cls-2" cx="171.4" cy="5.54" rx="5.28" ry="5.54"/><ellipse class="cls-2" cx="198.63" cy="5.54" rx="5.28" ry="5.54"/><ellipse class="cls-2" cx="225.86" cy="5.54" rx="5.28" ry="5.54"/><ellipse class="cls-2" cx="253.09" cy="5.54" rx="5.28" ry="5.54"/><ellipse class="cls-2" cx="5.28" cy="5.54" rx="5.28" ry="5.54"/><ellipse class="cls-2" cx="5.28" cy="89.48" rx="5.28" ry="5.54"/><ellipse class="cls-2" cx="5.28" cy="115.22" rx="5.28" ry="5.54"/><ellipse class="cls-2" cx="5.28" cy="140.96" rx="5.28" ry="5.54"/><ellipse class="cls-2" cx="5.28" cy="166.7" rx="5.28" ry="5.54"/><ellipse class="cls-2" cx="5.28" cy="192.44" rx="5.28" ry="5.54"/><ellipse class="cls-2" cx="5.28" cy="218.17" rx="5.28" ry="5.54"/><ellipse class="cls-2" cx="62.47" cy="218.17" rx="5.28" ry="5.54"/><ellipse class="cls-2" cx="89.7" cy="218.17" rx="5.28" ry="5.54"/><ellipse class="cls-2" cx="116.93" cy="218.17" rx="5.28" ry="5.54"/><ellipse class="cls-2" cx="144.16" cy="218.17" rx="5.28" ry="5.54"/><ellipse class="cls-2" cx="171.4" cy="218.17" rx="5.28" ry="5.54"/><ellipse class="cls-2" cx="198.63" cy="218.17" rx="5.28" ry="5.54"/><ellipse class="cls-2" cx="225.86" cy="218.17" rx="5.28" ry="5.54"/><ellipse class="cls-2" cx="253.09" cy="218.17" rx="5.28" ry="5.54"/><ellipse class="cls-2" cx="280.05" cy="63.74" rx="5.28" ry="5.54"/><ellipse class="cls-2" cx="280.05" cy="89.48" rx="5.28" ry="5.54"/><ellipse class="cls-2" cx="280.05" cy="115.22" rx="5.28" ry="5.54"/><ellipse class="cls-2" cx="280.05" cy="140.96" rx="5.28" ry="5.54"/><ellipse class="cls-2" cx="280.05" cy="166.7" rx="5.28" ry="5.54"/><ellipse class="cls-2" cx="280.05" cy="192.44" rx="5.28" ry="5.54"/><ellipse class="cls-2" cx="280.05" cy="34.64" rx="5.28" ry="5.54"/><ellipse class="cls-2" cx="280.05" cy="5.54" rx="5.28" ry="5.54"/><ellipse class="cls-2" cx="280.05" cy="218.17" rx="5.28" ry="5.54"/><ellipse class="cls-2" cx="307.01" cy="63.74" rx="5.28" ry="5.54"/><ellipse class="cls-2" cx="307.01" cy="89.48" rx="5.28" ry="5.54"/><ellipse class="cls-2" cx="307.01" cy="115.22" rx="5.28" ry="5.54"/><ellipse class="cls-2" cx="307.01" cy="140.96" rx="5.28" ry="5.54"/><ellipse class="cls-2" cx="307.01" cy="166.7" rx="5.28" ry="5.54"/><ellipse class="cls-2" cx="307.01" cy="192.44" rx="5.28" ry="5.54"/><ellipse class="cls-2" cx="307.01" cy="34.64" rx="5.28" ry="5.54"/><ellipse class="cls-2" cx="307.01" cy="5.54" rx="5.28" ry="5.54"/><ellipse class="cls-2" cx="307.01" cy="218.17" rx="5.28" ry="5.54"/></g></g></g></svg>