<svg xmlns="http://www.w3.org/2000/svg" viewBox="0 0 157.76 182.52"><defs><style>.cls-1{fill:#353535;}.cls-2{fill:#ffc514;}.cls-3{fill:#7ec8e9;opacity:0.18;}</style></defs><title>Asset 19</title><g id="Layer_2" data-name="Layer 2"><g id="Layer_1-2" data-name="Layer 1"><path class="cls-1" d="M137.49,82.26c0,3.39-1.89,5.26-5.31,5.26H75.92c-3.26,0-4.42-.78-5.66-3.79l0-.14V3.83A5.3,5.3,0,0,1,74.06,0h59.51l.08,0c.21.11.43.21.65.3a7.51,7.51,0,0,1,1.5.81,4.4,4.4,0,0,1,1.69,3.72V31.54a2.27,2.27,0,0,1-.58,1.67,1.74,1.74,0,0,1-1.29.46c-1.12,0-1.77-.84-1.77-2.21q0-9.27,0-18.52V5.53c0-1.71-.17-1.89-1.89-1.89H75.53a3.32,3.32,0,0,0-.63,0,1.06,1.06,0,0,0-1,1.06,4.34,4.34,0,0,0,0,.51V82c0,1.64.21,1.84,1.86,1.84h56.34c1.56,0,1.77-.21,1.77-1.75V77.89q0-4.44,0-8.9A4.18,4.18,0,0,1,134,67.8a1.79,1.79,0,0,1,3.45.15,4.17,4.17,0,0,1,.07.93C137.49,73.39,137.5,77.83,137.49,82.26Z"/><path class="cls-1" d="M157.28,24.16A4.72,4.72,0,0,0,149,19.58c-.08.12-.16.26-.23.39a4.52,4.52,0,0,1-.32.52c-.06.08-.17.15-.13.17A2.12,2.12,0,0,0,146,22c-.78,1.37-1.58,2.72-2.38,4.08l-.79,1.34-.09-.06-.85-.45A1.81,1.81,0,1,0,140,30c.27.18.55.34.83.51l.08,0v0l-.31.55L137.8,36q-4.17,7.23-8.34,14.48a17.39,17.39,0,0,0-1.06,2.26c-.36.92-.71,1.85-1.05,2.77a46.42,46.42,0,0,1-3.08,7.07,4.43,4.43,0,0,0,0,4.26,1.36,1.36,0,0,1,.11.41c-.72.94-1.46,1.85-2.24,2.79l-.34.41-.07-.19c-.22-.55-.42-1.07-.66-1.58a3.25,3.25,0,0,0-5.69-.5s0,0,0,0c0-.41-.07-.82-.11-1.23-.09-1.16-.19-2.36-.34-3.54a3.25,3.25,0,0,0-6.28-.67c-1.18,3.45-2.31,6.87-3.56,10.67a1.75,1.75,0,0,0,.82,2.19,1.84,1.84,0,0,0,1,.29,1.62,1.62,0,0,0,.54-.1,2.14,2.14,0,0,0,1.2-1.4c.63-1.9,1.27-3.81,1.9-5.72l1-3,.08.91c.08,1,.15,2,.25,3a3.28,3.28,0,0,0,6.1,1.49L118,71l.52,1.28a3.51,3.51,0,0,0,2.68,2.31,3.45,3.45,0,0,0,3.18-1.43c.36-.43.7-.88,1-1.32.57-.73,1.15-1.47,1.75-2.17a.88.88,0,0,1,.65-.28,5,5,0,0,0,4.81-2.48,47.63,47.63,0,0,1,3.49-4.82A54.28,54.28,0,0,0,142,53.73c2.2-3.95,4.51-7.93,6.74-11.78q1.38-2.37,2.74-4.74c.09-.15.18-.3.28-.44.8.41,1.32.75,1.43,1.11s-.18,1-.68,1.87l-1.65,2.85c-1.17,2-2.35,4.06-3.51,6.1a2.05,2.05,0,0,0-.26,1.59,1.74,1.74,0,0,0,.86,1.05,1.81,1.81,0,0,0,2.51-.82l1-1.72c1.57-2.7,3.2-5.49,4.75-8.27a4.63,4.63,0,0,0-1.65-6.27c-.29-.19-.59-.37-.9-.55l-.13-.08.79-1.38c.77-1.34,1.52-2.66,2.31-4a2.21,2.21,0,0,0,0-2.83l.14-.24C156.91,24.86,157.11,24.51,157.28,24.16Zm-5.7-1.69c.07-.12.13-.25.19-.37.31-.64.52-1,1.1-1a1.6,1.6,0,0,1,1.06.51c.36.54.14.93-.31,1.64l-.2.31ZM129.81,64.7c-.3.62-.51,1-1,1a1.46,1.46,0,0,1-1.08-.48c-.39-.54-.17-.94.29-1.67l.19-.29L130,64.33ZM132,61.23l-2.31-1.34,1.78-4.77,3.78,2.17Zm5.34-6.92L133,51.8l11.19-19.4,4.35,2.52Zm13-22.55L146,29.25l2.51-4.36,4.35,2.53Z"/><path class="cls-1" d="M124.48,16.28a1.75,1.75,0,0,1-1.54,1.78,5,5,0,0,1-.86.05H85.7c-1.86,0-2.43-.56-2.43-2.41,0-1.55,0-3.11,0-4.66,0-1.77.61-2.37,2.4-2.37H122.1a3.58,3.58,0,0,1,1.29.19,1.66,1.66,0,0,1,1.08,1.81A1.69,1.69,0,0,1,123,12.27a5.14,5.14,0,0,1-.87.05H87v2.15h34.93a6,6,0,0,1,1.17.08A1.72,1.72,0,0,1,124.48,16.28Z"/><path class="cls-1" d="M98.44,48.13c0,1.11-.8,1.78-2.11,1.79H82.53a2.31,2.31,0,0,1-1.68-.58,1.74,1.74,0,0,1-.47-1.26c0-1.13.83-1.8,2.19-1.8H96.29a2.32,2.32,0,0,1,1.68.59A1.69,1.69,0,0,1,98.44,48.13Z"/><path class="cls-2" d="M96.16,66a1.77,1.77,0,0,1-.48,1.54c-1.62,1.67-3.37,3.46-5.21,5.21a3.08,3.08,0,0,1-2.13.87,3.31,3.31,0,0,1-2.23-.91c-1-1-2-1.94-3.13-3.12a1.83,1.83,0,0,1,1.19-3.14,2,2,0,0,1,1.39.6c.69.67,1.37,1.36,2.08,2.09l.69.71,1.07-1.08c1.21-1.23,2.39-2.42,3.55-3.62a1.81,1.81,0,0,1,2.27-.44A1.74,1.74,0,0,1,96.16,66Z"/><path class="cls-2" d="M101.33,69.26A12.59,12.59,0,0,1,90.58,81.59l-1.28.13-.6.06h0a12.69,12.69,0,0,1-2-25.21A12.56,12.56,0,0,1,96,58.7a2.25,2.25,0,0,1,1,1.45,1.71,1.71,0,0,1-.33,1.31,1.89,1.89,0,0,1-2.76.24A9.22,9.22,0,0,0,85,60.84a9,9,0,1,0,12.56,10c.08-.46.12-.94.16-1.41v-.23a1.83,1.83,0,0,1,1.93-1.89A1.79,1.79,0,0,1,101.33,69.26Z"/><path class="cls-1" d="M128.8,40.81a1.72,1.72,0,0,1-.46,1.3,2,2,0,0,1-1.47.58c-1.15,0-2.31,0-3.46,0H119q-1,0-2,0a2,2,0,0,1-1.74-1,1.59,1.59,0,0,1,.13-1.65,2.35,2.35,0,0,1,1.67-.91c3.22-.07,6.49-.05,9.65,0h.17A1.78,1.78,0,0,1,128.8,40.81Z"/><path class="cls-1" d="M128.8,32.26A1.74,1.74,0,0,1,127.12,34c-.23,0-.47,0-.7,0H95.53a3.18,3.18,0,0,1-.68-.06,1.65,1.65,0,0,1-1.44-1.52,1.68,1.68,0,0,1,1.08-1.89,3.47,3.47,0,0,1,1.21-.17h30.83a4.12,4.12,0,0,1,.74,0A1.78,1.78,0,0,1,128.8,32.26Z"/><path class="cls-1" d="M110.41,42.7H82.62c-2,0-2.24-1.17-2.23-1.84s.3-1.81,2.26-1.81h27.87a5.78,5.78,0,0,1,.72,0,1.79,1.79,0,0,1,.08,3.57A5.62,5.62,0,0,1,110.41,42.7Z"/><path class="cls-1" d="M114.36,48.08a1.66,1.66,0,0,1-.47,1.24,2.2,2.2,0,0,1-1.6.59H102.8c-1.34,0-2.19-.7-2.2-1.79a1.67,1.67,0,0,1,.48-1.24,2.28,2.28,0,0,1,1.69-.61h9.48A1.88,1.88,0,0,1,114.36,48.08Z"/><path class="cls-1" d="M87.61,21.94a1.74,1.74,0,0,1,1.64-1.66,4.92,4.92,0,0,1,.77,0h.11q13.73,0,27.45,0h.1a5.41,5.41,0,0,1,1,0,1.78,1.78,0,0,1,.19,3.47,4.12,4.12,0,0,1-1.19.12H90.12a5.38,5.38,0,0,1-1-.06A1.74,1.74,0,0,1,87.61,21.94Z"/><circle class="cls-3" cx="36.5" cy="146.02" r="36.5"/><circle class="cls-3" cx="89.5" cy="113.02" r="14.5"/><circle class="cls-3" cx="118.5" cy="115.02" r="5.5"/></g></g></svg>