<svg xmlns="http://www.w3.org/2000/svg" viewBox="0 0 146.78 178.72"><defs><style>.cls-1{fill:#353535;}.cls-2{fill:#ffc514;}.cls-3{fill:#7ec8e9;opacity:0.18;}</style></defs><title>Asset 20</title><g id="Layer_2" data-name="Layer 2"><g id="Layer_1-2" data-name="Layer 1"><path class="cls-1" d="M0,43.37A2.28,2.28,0,0,1,2.39,42c6.3,0,12.6,0,18.89,0a1.16,1.16,0,0,0,1.28-.86c.78-1.87,1.67-3.69,2.51-5.52l.42-.85H15c-1.42,0-2.3-.75-2.28-1.9S13.65,31,15,31c4.12,0,8.23,0,12.34,0a1.65,1.65,0,0,0,1.16-.52A37.61,37.61,0,0,1,49,17.52c.53-.13.78-.34.76-.94-.06-1.12,0-2.24,0-3.36a.79.79,0,0,0-.61-.87,6.33,6.33,0,0,1-4.15-7A6.42,6.42,0,0,1,51.47,0C55.74,0,60,0,64.28,0a6.38,6.38,0,0,1,6.65,5.24c.58,3.18-1.11,6-4.39,7.22l-.29.12v4.46c2.77,1.05,5.54,1.84,8.08,3.11C86.39,26.2,93.49,36,95.4,49.32a36.67,36.67,0,0,1-5.52,25.11,1.94,1.94,0,0,1-2.09,1.09A1.61,1.61,0,0,1,86.33,74a3.47,3.47,0,0,1,.54-1.8,34.79,34.79,0,0,0,4.54-11.69A34,34,0,1,0,49.56,87.09a33.34,33.34,0,0,0,26.41-4,6.42,6.42,0,0,1,.56-.34,1.87,1.87,0,1,1,1.93,3.19A36.57,36.57,0,0,1,67,90.85,37.69,37.69,0,0,1,23,68.36a1.13,1.13,0,0,0-1.26-.8c-3.86,0-7.73,0-11.59,0A7,7,0,0,1,9,67.5a1.83,1.83,0,0,1-.07-3.57,5.4,5.4,0,0,1,1.21-.09H20.75c.18,0,.36,0,.59,0l-1.15-7.14H12.27c-1.33,0-2.19-.77-2.16-1.91a1.9,1.9,0,0,1,2.16-1.82h7.86l.92-7.17H20c-5.77,0-11.53,0-17.3,0A2.79,2.79,0,0,1,0,44.49ZM57.91,9h6.35a4.54,4.54,0,0,0,1.28-.16,2.56,2.56,0,0,0,1.74-2.76,2.64,2.64,0,0,0-2.83-2.3q-6.45,0-12.89,0a2.66,2.66,0,0,0-2.94,2.67C48.64,8,49.78,9,51.56,9Zm-4.42,7.54h8.93V12.78H53.49Z"/><path class="cls-1" d="M0,65.06l.39-.48a1.86,1.86,0,0,1,2.78-.19,1.83,1.83,0,0,1-.08,2.71,1.87,1.87,0,0,1-2.76-.36c-.12-.18-.22-.37-.33-.55Z"/><path class="cls-1" d="M58,25.17a29,29,0,1,1-29,28.9A29,29,0,0,1,58,25.17Zm0,3.74A25.27,25.27,0,1,0,83.25,54.18,25.26,25.26,0,0,0,58,28.91Z"/><path class="cls-1" d="M81.53,79.54a1.83,1.83,0,0,1,1.85-1.83,1.85,1.85,0,1,1,0,3.7A1.83,1.83,0,0,1,81.53,79.54Z"/><path class="cls-2" d="M52.15,53.91a6.72,6.72,0,0,1,.32-1.48,1.16,1.16,0,0,0-.35-1.52c-1.14-1-2.23-2.18-3.32-3.29a1.87,1.87,0,0,1-.16-2.81,1.91,1.91,0,0,1,2.82.19c1.13,1.11,2.26,2.23,3.36,3.37a1,1,0,0,0,1.28.33,5.11,5.11,0,0,1,3.75,0,1,1,0,0,0,1.28-.3q4.11-4.16,8.26-8.27a5.16,5.16,0,0,1,.69-.63,1.85,1.85,0,0,1,2.54,2.62,5.58,5.58,0,0,1-.7.76c-2.7,2.71-5.41,5.43-8.14,8.12a1.12,1.12,0,0,0-.31,1.36,5.47,5.47,0,0,1-1.63,6.12,5.41,5.41,0,0,1-6.25,1A5.76,5.76,0,0,1,52.15,53.91ZM58,52.12a2,2,0,0,0-2.11,2,2.06,2.06,0,0,0,4.12.09A2,2,0,0,0,58,52.12Z"/><path class="cls-1" d="M59.86,35c0,.31,0,.62,0,.93a1.86,1.86,0,0,1-3.7.12,11.53,11.53,0,0,1,0-2,1.85,1.85,0,0,1,1.94-1.82,1.82,1.82,0,0,1,1.78,1.88c0,.28,0,.56,0,.84Z"/><path class="cls-1" d="M77.08,52.33c.31,0,.62,0,.93,0a1.85,1.85,0,0,1,.12,3.7,10.8,10.8,0,0,1-2,0,1.85,1.85,0,0,1,.16-3.7C76.52,52.32,76.8,52.33,77.08,52.33Z"/><path class="cls-1" d="M56.1,73.27c0-.28,0-.56,0-.84a1.86,1.86,0,0,1,3.71-.08,12.83,12.83,0,0,1,0,1.86,1.87,1.87,0,1,1-3.73-.11C56.09,73.83,56.1,73.55,56.1,73.27Z"/><path class="cls-1" d="M38.69,56a6.81,6.81,0,0,1-1.16-.12,1.82,1.82,0,0,1,.22-3.59,12.76,12.76,0,0,1,2,0A1.76,1.76,0,0,1,41.55,54,1.8,1.8,0,0,1,40,56C39.58,56,39.2,56,38.69,56Z"/><circle class="cls-3" cx="109.28" cy="141.22" r="37.5"/><circle class="cls-3" cx="57.78" cy="109.72" r="17"/><circle class="cls-3" cx="88.78" cy="94.24" r="6.73"/></g></g></svg>