<svg xmlns="http://www.w3.org/2000/svg" viewBox="0 0 173 176.52"><defs><style>.cls-1{fill:#7ec8e9;opacity:0.18;}.cls-2{fill:#353535;}.cls-3{fill:#ffc514;}</style></defs><title>Asset 18</title><g id="Layer_2" data-name="Layer 2"><g id="Layer_1-2" data-name="Layer 1"><circle class="cls-1" cx="20" cy="67.52" r="20"/><circle class="cls-1" cx="160" cy="90.52" r="13"/><circle class="cls-1" cx="130.5" cy="85.02" r="6.5"/><circle class="cls-1" cx="113.5" cy="136.02" r="40.5"/><path class="cls-2" d="M123.55,65.84c-.59,2.41-2.25,4-4,5.65q-7.94,7.29-15.77,14.67a26.68,26.68,0,0,1-19.09,7.49c-12.24-.05-24.49,0-36.73,0H46.76c-.27,1.53-1.29,1.9-2.71,1.89-4.51,0-9,0-13.52,0-1.86,0-2.48-.61-2.48-2.44v-28c0-1.8.61-2.42,2.4-2.42H44.06c2.1,0,2.62.52,2.64,2.65v.76c.33-.08.59-.12.84-.19l11.79-3.42a21.82,21.82,0,0,1,11.86.18c5.55,1.48,11.13,2.83,16.68,4.27,4.18,1.08,6.14,4.33,5.2,8.54,0,.09,0,.18.13.46A31.5,31.5,0,0,0,95.73,74c5.13-4.74,10.32-9.44,15.34-14.3a7.22,7.22,0,0,1,12.32,3.48c0,.08.1.14.16.22ZM46.73,89.9h.72c12.68,0,25.36,0,38,0a22,22,0,0,0,15.37-6.13q5.06-4.68,10.1-9.39c2.55-2.38,5.1-4.74,7.64-7.12a3.45,3.45,0,0,0-1.59-6,3.65,3.65,0,0,0-3.36,1.19c-5.36,5-10.72,10-16.13,15a10.39,10.39,0,0,1-7,2.82c-6.25.08-12.49.06-18.74,0a1.79,1.79,0,0,1-2-1.79,1.84,1.84,0,0,1,1.95-1.92h.84c4.47,0,9,0,13.42,0a4.7,4.7,0,0,0,2.14-.45,2.72,2.72,0,0,0,1.43-3A3.07,3.07,0,0,0,87,70.51q-9-2.27-18-4.56a13.78,13.78,0,0,0-6.47-.3c-3,.68-5.93,1.56-8.88,2.38-2.3.64-4.57,1.33-6.85,2ZM42.9,91.73V66.48H39.24v1.09c0,3.76,0,7.52,0,11.28a1.88,1.88,0,1,1-3.72,0c0-3.79,0-7.58,0-11.37v-1H31.83V91.73Z"/><path class="cls-2" d="M86.06,0a57.59,57.59,0,0,1,6.16,1.31c9.43,3.1,15.6,9.45,18.59,18.92.26.82.35,1.69-.39,2.21a2.85,2.85,0,0,1-1.87.45c-.91-.13-1.16-1-1.39-1.8A23.61,23.61,0,0,0,99.65,9.56,23.91,23.91,0,0,0,84.3,3.74c-1.61,0-2.6-1.07-2.13-2.37C82.37.83,83,.45,83.44,0Z"/><path class="cls-3" d="M86.51,60.37c-4.71-.07-8.26-1.34-11.1-4.15C68.57,49.47,61.76,42.7,55,35.84a15,15,0,0,1,0-20.75c.69-.72,1.39-1.43,2.11-2.12A6.15,6.15,0,0,1,66,13c2.61,2.57,5.21,5.16,7.77,7.78a6.17,6.17,0,0,1,0,8.87c-1.21,1.26-1.21,1.81,0,3l5,4.94a1.57,1.57,0,0,0,2.57,0c3-2.84,6.49-2.8,9.4.11,2.44,2.43,4.89,4.87,7.32,7.32a6.21,6.21,0,0,1,0,9.2c-2.31,2.4-4.75,4.6-8.08,5.44C88.64,60.06,87.22,60.24,86.51,60.37ZM70.32,27.8c1.81-1.55,2.12-3,.88-4.3q-3.9-4-7.91-7.91a2.4,2.4,0,0,0-3.51,0c-.59.55-1.15,1.13-1.72,1.71a11.33,11.33,0,0,0,0,16.35C61,36.61,64,39.53,66.87,42.45,70.45,46,74,49.63,77.62,53.19c3.95,3.91,10.23,4.57,14.52,1.37a6.69,6.69,0,0,1-.87-.62c-1.94-1.92-3.88-3.85-5.8-5.79a1.89,1.89,0,1,1,2.61-2.67c1.53,1.51,3,3,4.54,4.55.72.73,1.38,1.51,2,2.24,2.1-1.68,2.21-3.11.52-4.81l-7.06-7.05c-1.51-1.51-2.71-1.51-4.25,0a5.19,5.19,0,0,1-7.65,0C74.41,38.6,72.6,36.8,70.83,35a3.88,3.88,0,0,1-1.14-1.66c-.31-1.43-1.34-2.26-2.26-3.2s-2-2-3-3c-.85-.86-1.73-1.7-2.56-2.58a1.86,1.86,0,1,1,2.61-2.64c.28.24.54.52.8.78Z"/><path class="cls-2" d="M102.69,27.11c0,.28,0,.56,0,.84a1.84,1.84,0,0,1-3.68.22c-.15-1.11-.14-2.24-.37-3.33A15.12,15.12,0,0,0,84.29,12.89a3.25,3.25,0,0,1-1.56-.45,1.64,1.64,0,0,1-.56-2,1.85,1.85,0,0,1,2-1.25,18,18,0,0,1,7.49,1.68C98.43,14.14,102.05,19.62,102.69,27.11Z"/><path class="cls-2" d="M93,27.52c0,1.23-.34,1.92-1.25,2.23A1.76,1.76,0,0,1,89.64,29a3.54,3.54,0,0,1-.35-1.33,5.39,5.39,0,0,0-5.23-5.08c-1.29-.1-2-.85-2-2a1.89,1.89,0,0,1,2.2-1.75A9.12,9.12,0,0,1,93,27.52Z"/><path class="cls-2" d="M110.07,26.11a1.87,1.87,0,0,1-.07,3.73,1.87,1.87,0,0,1,.07-3.73Z"/><path class="cls-2" d="M37.42,87.84a1.86,1.86,0,1,1,1.81-2A1.89,1.89,0,0,1,37.42,87.84Z"/></g></g></svg>