<svg xmlns="http://www.w3.org/2000/svg" viewBox="0 0 68.35 78.83"><defs><style>.cls-1{fill:none;stroke:#939393;stroke-linecap:round;stroke-linejoin:round;stroke-width:3px;}</style></defs><title>Asset 30</title><g id="Layer_2" data-name="Layer 2"><g id="Layer_1-2" data-name="Layer 1"><g id="_Group_" data-name="&lt;Group&gt;"><path class="cls-1" d="M1.67,37.6c-.37-6.68,0-15.91,0-30.07,12,2.08,22.85,0,32.54-6,8,6.35,19.13,7.82,32.36,6,0,14.36.51,23.5.21,30.07-.34,7.77-1.76,12-6.49,17.11S47.58,65.87,34.18,77.33C20.5,65.71,12.49,59.93,7.82,54.71,3.59,49.91,2.12,45.57,1.67,37.6Z"/><path class="cls-1" d="M7.82,54.71c4.67,5.22,12.68,11,26.36,22.62"/><path class="cls-1" d="M34.18,77.33c13.4-11.46,21.38-17.51,26.08-22.62"/><path class="cls-1" d="M60.26,54.71C65,49.6,66.41,45.37,66.75,37.6"/><path class="cls-1" d="M1.67,37.6c.45,8,1.92,12.31,6.15,17.11"/><line class="cls-1" x1="1.7" y1="37.6" x2="1.67" y2="37.6"/><path class="cls-1" d="M66.75,37.6c.3-6.57-.21-15.71-.21-30.07-13.23,1.79-24.35.32-32.36-6-9.69,6.06-20.53,8.11-32.54,6,0,14.16-.34,23.39,0,30.07.45,8,1.92,12.31,6.15,17.11,4.67,5.22,12.68,11,26.36,22.62,13.4-11.46,21.38-17.51,26.08-22.62S66.41,45.37,66.75,37.6Z"/><path class="cls-1" d="M34.15,63.88C58.83,43.2,56,48.71,55.6,18.52,48,18.81,40.4,17.69,33.88,14a43.5,43.5,0,0,1-21.27,4.66c-.09,5.68-.21,11.42,0,17.08"/><polyline class="cls-1" points="28.02 38.32 34.51 43.8 47.22 28.9"/></g></g></g></svg>