<svg xmlns="http://www.w3.org/2000/svg" viewBox="0 0 86.11 77.66"><defs><style>.cls-1{fill:#939393;stroke:#939393;stroke-miterlimit:10;}</style></defs><title>Asset 31</title><g id="Layer_2" data-name="Layer 2"><g id="Layer_1-2" data-name="Layer 1"><path class="cls-1" d="M36,71.38A35.44,35.44,0,1,1,71.21,32.43a.76.76,0,0,1-1,.78A17.09,17.09,0,0,1,66,30.81a25.11,25.11,0,0,1-17.89,3.67c0,2.75,0,5.18,0,7.36C48,56.67,47.93,59,54.44,65a.81.81,0,0,1,.24.64.75.75,0,0,1-.37.57A35.35,35.35,0,0,1,36,71.38ZM36,2A33.92,33.92,0,1,0,52.66,65.45c-6.26-6.06-6.23-9.11-6.1-23.63,0-2.4,0-5.13,0-8.24a.77.77,0,0,1,.27-.59.75.75,0,0,1,.63-.16,23.82,23.82,0,0,0,18.14-3.59.75.75,0,0,1,.91.05,15.66,15.66,0,0,0,3,2A33.78,33.78,0,0,0,36,2Z"/><path class="cls-1" d="M36,71.38c-10,0-18.1-15.9-18.1-35.44S26,.5,36,.5C45.57.5,53.51,15.22,54,34a.76.76,0,0,1-.74.78,27.57,27.57,0,0,1-5.15-.32c0,2.76,0,5.21-.05,7.39-.08,9-.12,13.58,1.42,17a.75.75,0,0,1,0,.62C46.09,67.05,41.15,71.38,36,71.38ZM36,2C26.81,2,19.37,17.24,19.37,35.94S26.81,69.86,36,69.86c4.51,0,8.88-3.89,12-10.68-1.54-3.68-1.49-8.32-1.41-17.32,0-2.42,0-5.15,0-8.28a.77.77,0,0,1,.27-.59.79.79,0,0,1,.63-.16,27.13,27.13,0,0,0,4.91.46h0C51.8,15.7,44.61,2,36,2Z"/><path class="cls-1" d="M47.36,36.7H1.26a.76.76,0,0,1,0-1.52h46.1a.76.76,0,0,1,0,1.52Z"/><path class="cls-1" d="M36,71.38a.76.76,0,0,1-.77-.76V1.26a.77.77,0,0,1,1.53,0V70.62A.76.76,0,0,1,36,71.38Z"/><path class="cls-1" d="M36,22.89A93.4,93.4,0,0,1,6.46,18a.76.76,0,1,1,.47-1.44,90.4,90.4,0,0,0,58,0A.76.76,0,1,1,65.43,18,92.8,92.8,0,0,1,36,22.89Z"/><path class="cls-1" d="M6.7,55.06A.77.77,0,0,1,6,54.53a.76.76,0,0,1,.49-1,92.19,92.19,0,0,1,41-4.14.77.77,0,0,1,.66.85.76.76,0,0,1-.85.66A90.86,90.86,0,0,0,6.93,55,1,1,0,0,1,6.7,55.06Z"/><path class="cls-1" d="M66.07,77.16a.78.78,0,0,1-.51-.2c-2.76-2.5-5.09-4.53-7.14-6.32C46.51,60.23,46.39,60,46.56,41.83c0-2.41,0-5.13,0-8.25a.77.77,0,0,1,.27-.59.75.75,0,0,1,.63-.16,23.82,23.82,0,0,0,18.14-3.59.77.77,0,0,1,.92.05c4.17,3.53,10.05,4.69,18,3.53a.79.79,0,0,1,.61.18.77.77,0,0,1,.26.58c0,3.94.06,7.18.11,10,.28,16,.17,16.29-12.3,27.36-1.91,1.7-4.12,3.66-6.66,6A.79.79,0,0,1,66.07,77.16ZM48.13,34.48c0,2.75,0,5.19-.05,7.36-.16,17.61-.16,17.61,11.35,27.65,1.92,1.68,4.09,3.58,6.64,5.88,2.34-2.13,4.38-3.94,6.17-5.53C84.3,59.13,84.3,59.13,84,43.64c0-2.65-.1-5.63-.1-9.19-7.67,1-13.6-.25-17.9-3.64A25.11,25.11,0,0,1,48.13,34.48Z"/><path class="cls-1" d="M71.62,62.44H60.44a2.17,2.17,0,0,1-2.17-2.17V51.15a.77.77,0,0,1,.77-.76H73.13a.76.76,0,0,1,.76.76v9A2.26,2.26,0,0,1,71.62,62.44ZM59.8,51.92v8.35a.65.65,0,0,0,.64.65H71.62a.75.75,0,0,0,.75-.73V51.92Z"/><path class="cls-1" d="M70.46,51.92H61.7a.76.76,0,0,1-.76-.77V48.89a5.14,5.14,0,0,1,10.28,0v2.26A.76.76,0,0,1,70.46,51.92Zm-8-1.53H69.7v-1.5a3.62,3.62,0,0,0-7.24,0Z"/><path class="cls-1" d="M78.6,39.73H54.27a.79.79,0,0,1-.79-.76.74.74,0,0,1,.74-.76H78.6a.76.76,0,0,1,0,1.52Z"/></g></g></svg>