<svg xmlns="http://www.w3.org/2000/svg" viewBox="0 0 47.2 41.37"><defs><style>.cls-1{fill:#777d77;}</style></defs><title>DN 10 lđ</title><g id="Layer_2" data-name="Layer 2"><g id="Layer_1-2" data-name="Layer 1"><path class="cls-1" d="M0,6.59H10.77v27H7.6v7.77H0Zm4,8.64H8.47v-4.5H4Zm4.51,2.83H4v4.5H8.47Zm0,11.86v-4.5H4v4.5Z"/><path class="cls-1" d="M26.12,41.34V32.16h-5v9.18H12.79V0H34.44V41.34Zm-4.06-31.1V4.88h-5v5.36Zm3.12-5.36v5.36h4.95V4.88ZM17.09,19h5V13.61h-5Zm13,0V13.61H25.18V19Zm-8.07,8.75V22.36H17.11v5.37Zm3.12,0h5V22.36h-5Z"/><path class="cls-1" d="M47.2,41.36H39.66V33.62h-3.2v-27H47.2ZM43.28,15.24V10.73H38.77v4.51Zm0,7.34V18.06H38.78v4.52ZM38.78,25.4v4.51h4.49V25.4Z"/></g></g></svg>