<svg xmlns="http://www.w3.org/2000/svg" viewBox="0 0 39.99 40.06"><defs><style>.cls-1{fill:#777d77;}</style></defs><title>DN 6 lđ</title><g id="Layer_2" data-name="Layer 2"><g id="Layer_1-2" data-name="Layer 1"><g id="_Group_" data-name="&lt;Group&gt;"><path id="_Compound_Path_" data-name="&lt;Compound Path&gt;" class="cls-1" d="M0,4.17v33.4H13.13v-3h2.34V4.17ZM6.13,32.71H2v-4H6.13Zm0-6.95H2v-4H6.13Zm0-6.93H2v-4H6.13Zm0-6.92H2v-4H6.13Zm7.67,20.8H9.7v-4h4.1Zm0-6.95H9.7v-4h4.1Zm0-6.93H9.7v-4h4.1Zm0-6.92H9.7v-4h4.1Z"/><path id="_Compound_Path_2" data-name="&lt;Compound Path&gt;" class="cls-1" d="M37.52,36.69V0H16.9V36.69H14.38v3.37H40V36.69ZM30,37.91H24.37V33.32H30Zm5.31-6.74H18.67v-2H35.31Zm0-3.46H18.67V25.76H35.31Zm0-3.47H18.67V22.29H35.31Zm0-3.46H18.67v-2H35.31Zm0-3.46H18.67v-2H35.31Zm0-3.46H18.67V11.91H35.31Zm0-3.47H18.67v-2H35.31Zm0-3.46H18.67V5H35.31Z"/></g></g></g></svg>