<svg xmlns="http://www.w3.org/2000/svg" viewBox="0 0 29.87 19.23"><defs><style>.cls-1{fill:#828282;}</style></defs><title>Asset 17</title><g id="Layer_2" data-name="Layer 2"><g id="Layer_1-2" data-name="Layer 1"><path class="cls-1" d="M0,9.32a7.32,7.32,0,0,1,.61-1A26.61,26.61,0,0,1,8,2a14,14,0,0,1,7.16-2,14.14,14.14,0,0,1,6.69,2,27,27,0,0,1,7.63,6.64,3.94,3.94,0,0,1,.36.71v.59a7.28,7.28,0,0,1-.63,1,26.56,26.56,0,0,1-7.31,6.29,15.1,15.1,0,0,1-5.44,1.9,12.46,12.46,0,0,1-5.87-.68,20.06,20.06,0,0,1-6.14-3.63,29.07,29.07,0,0,1-4-4.11A5.12,5.12,0,0,1,0,9.91ZM14.93,2.66a7,7,0,1,0,7,7A6.93,6.93,0,0,0,14.93,2.66Z"/><path class="cls-1" d="M10.13,9.61a4.81,4.81,0,1,1,4.79,4.81A4.8,4.8,0,0,1,10.13,9.61Zm4.45-3c-1.39-.1-2.91,1.44-2.64,2.65h1.52a1.16,1.16,0,0,1,1-1.08c.05,0,.12-.1.12-.15C14.58,7.58,14.58,7.11,14.58,6.62Z"/></g></g></svg>