<svg xmlns="http://www.w3.org/2000/svg" viewBox="0 0 37.18 23.94"><defs><style>.cls-1{fill:#f8f8f8;}</style></defs><title>Asset 33</title><g id="Layer_2" data-name="Layer 2"><g id="Layer_1-2" data-name="Layer 1"><path class="cls-1" d="M0,11.6a9.25,9.25,0,0,1,.76-1.25A32.88,32.88,0,0,1,10,2.44,17.38,17.38,0,0,1,18.9,0a17.65,17.65,0,0,1,8.33,2.45,33.72,33.72,0,0,1,9.5,8.26,5.71,5.71,0,0,1,.45.89v.73a9.71,9.71,0,0,1-.78,1.28,33.23,33.23,0,0,1-9.11,7.84,18.93,18.93,0,0,1-6.76,2.36A15.58,15.58,0,0,1,13.21,23a24.94,24.94,0,0,1-7.63-4.51,36.33,36.33,0,0,1-5-5.12,5.68,5.68,0,0,1-.55-1ZM18.59,3.31A8.66,8.66,0,1,0,27.25,12,8.63,8.63,0,0,0,18.59,3.31Z"/><path class="cls-1" d="M12.61,12a6,6,0,1,1,6,6A6,6,0,0,1,12.61,12Zm5.53-3.71c-1.72-.14-3.61,1.78-3.28,3.28h1.89A1.43,1.43,0,0,1,18,10.2a.26.26,0,0,0,.16-.19C18.15,9.43,18.14,8.85,18.14,8.25Z"/></g></g></svg>