<svg xmlns="http://www.w3.org/2000/svg" viewBox="0 0 332.92 238.49"><defs><style>.cls-1{opacity:0.44;}.cls-2{fill:#9d9d9d;}</style></defs><title>Asset 16</title><g id="Layer_2" data-name="Layer 2"><g id="Layer_1-2" data-name="Layer 1"><g class="cls-1"><ellipse class="cls-2" cx="37.56" cy="67.95" rx="5.62" ry="5.91"/><ellipse class="cls-2" cx="66.59" cy="67.95" rx="5.62" ry="5.91"/><ellipse class="cls-2" cx="95.62" cy="67.95" rx="5.62" ry="5.91"/><ellipse class="cls-2" cx="124.65" cy="67.95" rx="5.62" ry="5.91"/><ellipse class="cls-2" cx="153.69" cy="67.95" rx="5.62" ry="5.91"/><ellipse class="cls-2" cx="182.72" cy="67.95" rx="5.62" ry="5.91"/><ellipse class="cls-2" cx="211.75" cy="67.95" rx="5.62" ry="5.91"/><ellipse class="cls-2" cx="240.78" cy="67.95" rx="5.62" ry="5.91"/><ellipse class="cls-2" cx="269.81" cy="67.95" rx="5.62" ry="5.91"/><ellipse class="cls-2" cx="37.56" cy="95.39" rx="5.62" ry="5.91"/><ellipse class="cls-2" cx="66.59" cy="95.39" rx="5.62" ry="5.91"/><ellipse class="cls-2" cx="95.62" cy="95.39" rx="5.62" ry="5.91"/><ellipse class="cls-2" cx="124.65" cy="95.39" rx="5.62" ry="5.91"/><ellipse class="cls-2" cx="153.69" cy="95.39" rx="5.62" ry="5.91"/><ellipse class="cls-2" cx="182.72" cy="95.39" rx="5.62" ry="5.91"/><ellipse class="cls-2" cx="211.75" cy="95.39" rx="5.62" ry="5.91"/><ellipse class="cls-2" cx="240.78" cy="95.39" rx="5.62" ry="5.91"/><ellipse class="cls-2" cx="269.81" cy="95.39" rx="5.62" ry="5.91"/><ellipse class="cls-2" cx="37.56" cy="122.83" rx="5.62" ry="5.91"/><ellipse class="cls-2" cx="66.59" cy="122.83" rx="5.62" ry="5.91"/><ellipse class="cls-2" cx="95.62" cy="122.83" rx="5.62" ry="5.91"/><ellipse class="cls-2" cx="124.65" cy="122.83" rx="5.62" ry="5.91"/><ellipse class="cls-2" cx="153.69" cy="122.83" rx="5.62" ry="5.91"/><ellipse class="cls-2" cx="182.72" cy="122.83" rx="5.62" ry="5.91"/><ellipse class="cls-2" cx="211.75" cy="122.83" rx="5.62" ry="5.91"/><ellipse class="cls-2" cx="240.78" cy="122.83" rx="5.62" ry="5.91"/><ellipse class="cls-2" cx="269.81" cy="122.83" rx="5.62" ry="5.91"/><ellipse class="cls-2" cx="37.56" cy="150.27" rx="5.62" ry="5.91"/><ellipse class="cls-2" cx="66.59" cy="150.27" rx="5.62" ry="5.91"/><ellipse class="cls-2" cx="95.62" cy="150.27" rx="5.62" ry="5.91"/><ellipse class="cls-2" cx="124.65" cy="150.27" rx="5.62" ry="5.91"/><ellipse class="cls-2" cx="153.69" cy="150.27" rx="5.62" ry="5.91"/><ellipse class="cls-2" cx="182.72" cy="150.27" rx="5.62" ry="5.91"/><ellipse class="cls-2" cx="211.75" cy="150.27" rx="5.62" ry="5.91"/><ellipse class="cls-2" cx="240.78" cy="150.27" rx="5.62" ry="5.91"/><ellipse class="cls-2" cx="269.81" cy="150.27" rx="5.62" ry="5.91"/><ellipse class="cls-2" cx="37.56" cy="177.71" rx="5.62" ry="5.91"/><ellipse class="cls-2" cx="66.59" cy="177.71" rx="5.62" ry="5.91"/><ellipse class="cls-2" cx="95.62" cy="177.71" rx="5.62" ry="5.91"/><ellipse class="cls-2" cx="124.65" cy="177.71" rx="5.62" ry="5.91"/><ellipse class="cls-2" cx="153.69" cy="177.71" rx="5.62" ry="5.91"/><ellipse class="cls-2" cx="182.72" cy="177.71" rx="5.62" ry="5.91"/><ellipse class="cls-2" cx="211.75" cy="177.71" rx="5.62" ry="5.91"/><ellipse class="cls-2" cx="240.78" cy="177.71" rx="5.62" ry="5.91"/><ellipse class="cls-2" cx="269.81" cy="177.71" rx="5.62" ry="5.91"/><ellipse class="cls-2" cx="37.56" cy="205.15" rx="5.62" ry="5.91"/><ellipse class="cls-2" cx="66.59" cy="205.15" rx="5.62" ry="5.91"/><ellipse class="cls-2" cx="95.62" cy="205.15" rx="5.62" ry="5.91"/><ellipse class="cls-2" cx="124.65" cy="205.15" rx="5.62" ry="5.91"/><ellipse class="cls-2" cx="153.69" cy="205.15" rx="5.62" ry="5.91"/><ellipse class="cls-2" cx="182.72" cy="205.15" rx="5.62" ry="5.91"/><ellipse class="cls-2" cx="211.75" cy="205.15" rx="5.62" ry="5.91"/><ellipse class="cls-2" cx="240.78" cy="205.15" rx="5.62" ry="5.91"/><ellipse class="cls-2" cx="269.81" cy="205.15" rx="5.62" ry="5.91"/><ellipse class="cls-2" cx="37.56" cy="232.59" rx="5.62" ry="5.91"/><ellipse class="cls-2" cx="5.62" cy="67.95" rx="5.62" ry="5.91"/><ellipse class="cls-2" cx="37.56" cy="36.93" rx="5.62" ry="5.91"/><ellipse class="cls-2" cx="66.59" cy="36.93" rx="5.62" ry="5.91"/><ellipse class="cls-2" cx="95.62" cy="36.93" rx="5.62" ry="5.91"/><ellipse class="cls-2" cx="124.65" cy="36.93" rx="5.62" ry="5.91"/><ellipse class="cls-2" cx="153.69" cy="36.93" rx="5.62" ry="5.91"/><ellipse class="cls-2" cx="182.72" cy="36.93" rx="5.62" ry="5.91"/><ellipse class="cls-2" cx="211.75" cy="36.93" rx="5.62" ry="5.91"/><ellipse class="cls-2" cx="240.78" cy="36.93" rx="5.62" ry="5.91"/><ellipse class="cls-2" cx="269.81" cy="36.93" rx="5.62" ry="5.91"/><ellipse class="cls-2" cx="5.62" cy="36.93" rx="5.62" ry="5.91"/><ellipse class="cls-2" cx="37.56" cy="5.91" rx="5.62" ry="5.91"/><ellipse class="cls-2" cx="66.59" cy="5.91" rx="5.62" ry="5.91"/><ellipse class="cls-2" cx="95.62" cy="5.91" rx="5.62" ry="5.91"/><ellipse class="cls-2" cx="124.65" cy="5.91" rx="5.62" ry="5.91"/><ellipse class="cls-2" cx="153.69" cy="5.91" rx="5.62" ry="5.91"/><ellipse class="cls-2" cx="182.72" cy="5.91" rx="5.62" ry="5.91"/><ellipse class="cls-2" cx="211.75" cy="5.91" rx="5.62" ry="5.91"/><ellipse class="cls-2" cx="240.78" cy="5.91" rx="5.62" ry="5.91"/><ellipse class="cls-2" cx="269.81" cy="5.91" rx="5.62" ry="5.91"/><ellipse class="cls-2" cx="5.62" cy="5.91" rx="5.62" ry="5.91"/><ellipse class="cls-2" cx="5.62" cy="95.39" rx="5.62" ry="5.91"/><ellipse class="cls-2" cx="5.62" cy="122.83" rx="5.62" ry="5.91"/><ellipse class="cls-2" cx="5.62" cy="150.27" rx="5.62" ry="5.91"/><ellipse class="cls-2" cx="5.62" cy="177.71" rx="5.62" ry="5.91"/><ellipse class="cls-2" cx="5.62" cy="205.15" rx="5.62" ry="5.91"/><ellipse class="cls-2" cx="5.62" cy="232.59" rx="5.62" ry="5.91"/><ellipse class="cls-2" cx="66.59" cy="232.59" rx="5.62" ry="5.91"/><ellipse class="cls-2" cx="95.62" cy="232.59" rx="5.62" ry="5.91"/><ellipse class="cls-2" cx="124.65" cy="232.59" rx="5.62" ry="5.91"/><ellipse class="cls-2" cx="153.69" cy="232.59" rx="5.62" ry="5.91"/><ellipse class="cls-2" cx="182.72" cy="232.59" rx="5.62" ry="5.91"/><ellipse class="cls-2" cx="211.75" cy="232.59" rx="5.62" ry="5.91"/><ellipse class="cls-2" cx="240.78" cy="232.59" rx="5.62" ry="5.91"/><ellipse class="cls-2" cx="269.81" cy="232.59" rx="5.62" ry="5.91"/><ellipse class="cls-2" cx="298.55" cy="67.95" rx="5.62" ry="5.91"/><ellipse class="cls-2" cx="298.55" cy="95.39" rx="5.62" ry="5.91"/><ellipse class="cls-2" cx="298.55" cy="122.83" rx="5.62" ry="5.91"/><ellipse class="cls-2" cx="298.55" cy="150.27" rx="5.62" ry="5.91"/><ellipse class="cls-2" cx="298.55" cy="177.71" rx="5.62" ry="5.91"/><ellipse class="cls-2" cx="298.55" cy="205.15" rx="5.62" ry="5.91"/><ellipse class="cls-2" cx="298.55" cy="36.93" rx="5.62" ry="5.91"/><ellipse class="cls-2" cx="298.55" cy="5.91" rx="5.62" ry="5.91"/><ellipse class="cls-2" cx="298.55" cy="232.59" rx="5.62" ry="5.91"/><ellipse class="cls-2" cx="327.29" cy="67.95" rx="5.62" ry="5.91"/><ellipse class="cls-2" cx="327.29" cy="95.39" rx="5.62" ry="5.91"/><ellipse class="cls-2" cx="327.29" cy="122.83" rx="5.62" ry="5.91"/><ellipse class="cls-2" cx="327.29" cy="150.27" rx="5.62" ry="5.91"/><ellipse class="cls-2" cx="327.29" cy="177.71" rx="5.62" ry="5.91"/><ellipse class="cls-2" cx="327.29" cy="205.15" rx="5.62" ry="5.91"/><ellipse class="cls-2" cx="327.29" cy="36.93" rx="5.62" ry="5.91"/><ellipse class="cls-2" cx="327.29" cy="5.91" rx="5.62" ry="5.91"/><ellipse class="cls-2" cx="327.29" cy="232.59" rx="5.62" ry="5.91"/></g></g></g></svg>