<svg xmlns="http://www.w3.org/2000/svg" viewBox="0 0 61.07 37.53"><defs><style>.cls-1{fill:#f9f7f7;stroke:#c6c6c6;stroke-miterlimit:10;}.cls-2{fill:#5b5b5b;}.cls-3{font-size:9.84px;font-family:Montserrat-Light, Montserrat;}.cls-4{letter-spacing:-0.06em;}</style></defs><title>cash_1</title><g id="Layer_2" data-name="Layer 2"><g id="Layer_1-2" data-name="Layer 1"><rect class="cls-1" x="0.5" y="0.5" width="60.07" height="36.53" rx="3.65" ry="3.65"/><path class="cls-2" d="M18.05,5.8a.7.7,0,0,1,.65-.3H40.46c.5,0,.64.15.64.65V19.28c0,.49-.14.64-.64.64H18.7a.69.69,0,0,1-.65-.31Zm1,.68V18.93H40.12V6.48Z"/><path class="cls-2" d="M42.06,4.55H19.7c-.49,0-.69-.15-.69-.49s.21-.47.7-.47H42.58A.43.43,0,0,1,43,4c0,.1,0,.2,0,.29V18.73A2.17,2.17,0,0,1,43,19a.45.45,0,0,1-.46.44.46.46,0,0,1-.49-.42,2.81,2.81,0,0,1,0-.29V4.55Z"/><path class="cls-2" d="M26.7,12.86a8.62,8.62,0,0,1,.6-3.43,4.16,4.16,0,0,1,.87-1.36,1.85,1.85,0,0,1,2.81,0A4.39,4.39,0,0,1,32.05,10a9.14,9.14,0,0,1-.2,6,3.58,3.58,0,0,1-1.08,1.55,1.79,1.79,0,0,1-2.36,0,4.1,4.1,0,0,1-1.27-2A8.38,8.38,0,0,1,26.7,12.86Zm1-.46a7.48,7.48,0,0,0,.59,3.35,4.35,4.35,0,0,0,.76,1,.78.78,0,0,0,1.14,0,2.53,2.53,0,0,0,.77-1.08,8,8,0,0,0,.17-5.59,3,3,0,0,0-1-1.53.79.79,0,0,0-1.1,0,3.1,3.1,0,0,0-.66.83A6.48,6.48,0,0,0,27.66,12.4Z"/><path class="cls-2" d="M23.1,13.2H21.47c-.36,0-.54-.19-.53-.51a.41.41,0,0,1,.37-.43,1,1,0,0,1,.24,0h3.09a.74.74,0,0,1,.49.18.65.65,0,0,1,.07.5c0,.22-.25.28-.45.28H23.1Z"/><path class="cls-2" d="M36,13.2h-1.6c-.36,0-.54-.18-.54-.5a.44.44,0,0,1,.39-.45h3.33c.35,0,.51.1.58.34a.47.47,0,0,1-.5.62Z"/><path class="cls-2" d="M21.45,18c-.09.12-.17.3-.31.36a.5.5,0,0,1-.45,0c-.39-.34-.75-.71-1.1-1.08a.47.47,0,0,1,.64-.66c.38.35.73.72,1.09,1.09C21.38,17.79,21.39,17.9,21.45,18Z"/><path class="cls-2" d="M19.92,8.9c-.11-.08-.29-.16-.35-.29a.53.53,0,0,1,0-.48c.33-.38.69-.73,1.06-1.08a.47.47,0,0,1,.66.65c-.35.37-.72.73-1.09,1.09A1.16,1.16,0,0,1,19.92,8.9Z"/><path class="cls-2" d="M38.16,18.51c-.11-.1-.3-.18-.35-.32a.52.52,0,0,1,0-.47c.33-.38.69-.73,1-1.07a.45.45,0,0,1,.62.05.45.45,0,0,1,0,.6q-.53.56-1.08,1.08C38.42,18.44,38.31,18.45,38.16,18.51Z"/><path class="cls-2" d="M39.21,8.93a2.46,2.46,0,0,1-.39-.24c-.31-.29-.62-.6-.91-.91a.47.47,0,1,1,.66-.67l1,1a.42.42,0,0,1,.08.53A2.21,2.21,0,0,1,39.21,8.93Z"/><text class="cls-3" transform="translate(7.42 32.75)">TIỀN M<tspan class="cls-4" x="34.42" y="0">Ặ</tspan><tspan x="40.79" y="0">T</tspan></text></g></g></svg>