<svg xmlns="http://www.w3.org/2000/svg" viewBox="0 0 27.03 20.28"><defs><style>.cls-1{fill:#afaead;}</style></defs><title>mail icon</title><g id="Layer_2" data-name="Layer 2"><g id="Layer_1-2" data-name="Layer 1"><path class="cls-1" d="M27,3.7V18.32l0,.12a2.25,2.25,0,0,1-2.34,1.84H2.37A2.25,2.25,0,0,1,0,17.9V4a.62.62,0,0,1,.33-.66.61.61,0,0,1,.72.17l4.74,4L12,12.89a2.31,2.31,0,0,0,2,.58,2.91,2.91,0,0,0,1.34-.74L26,3.54C26.42,3.17,26.73,3.22,27,3.7Z"/><path class="cls-1" d="M13.53,0H24.67a2.65,2.65,0,0,1,1.77.57c.33.28.31.51-.07.76Q23,3.52,19.63,5.72L14.4,9.18a1.4,1.4,0,0,1-1.77,0L1.07,1.59l-.5-.33a.36.36,0,0,1,0-.62A2.5,2.5,0,0,1,2.26,0H13.53Z"/></g></g></svg>