<svg xmlns="http://www.w3.org/2000/svg" viewBox="0 0 22.74 27.61"><defs><style>.cls-1{fill:#fff;}</style></defs><title>phone icon_1</title><g id="Layer_2" data-name="Layer 2"><g id="Layer_1-2" data-name="Layer 1"><path class="cls-1" d="M22.71,24.63A2.07,2.07,0,0,1,21.87,26l-1.28.9-.23.09a6.62,6.62,0,0,1-3.18.66,3.41,3.41,0,0,1-.49-.06c-1.86-.3-6.72-1.78-11.77-8.8C.53,12.64-.78,8.46.42,4.32a7.37,7.37,0,0,1,.66-1.54,6.82,6.82,0,0,1,1-1.25,1,1,0,0,0,.2-.26L3.49.39A2.06,2.06,0,0,1,5,0,2,2,0,0,1,6.3.8L9.54,5.3A2,2,0,0,1,9,8.1L7.57,9.16a1.37,1.37,0,0,0-.48,1.56,18.71,18.71,0,0,0,2.44,4.72,18.76,18.76,0,0,0,3.7,3.81,1.33,1.33,0,0,0,.64.29,1.36,1.36,0,0,0,1-.24l1.46-1a2,2,0,0,1,1.54-.38,2,2,0,0,1,1.29.78l3.23,4.5a2,2,0,0,1,.33,1.47"/></g></g></svg>