<svg xmlns="http://www.w3.org/2000/svg" viewBox="0 0 27.06 27.01"><defs><style>.cls-1{fill:#fa1;}</style></defs><title>phone icon</title><g id="Layer_2" data-name="Layer 2"><g id="Layer_1-2" data-name="Layer 1"><path class="cls-1" d="M27.06,23.18a3.57,3.57,0,0,1-1.13,1.73,6.84,6.84,0,0,1-4,2,8.56,8.56,0,0,1-2.94-.2,19.73,19.73,0,0,1-7.75-3.63,36.87,36.87,0,0,1-9.07-9.57,12.71,12.71,0,0,1-2-5.12A9,9,0,0,1,.9,2.78,8,8,0,0,1,2.84.5,2.13,2.13,0,0,1,5.72.63C7.11,2,8.48,3.38,9.85,4.76a2.14,2.14,0,0,1,0,3.1c-.62.65-1.25,1.27-1.89,1.89a2,2,0,0,1-.25.2c.46.77.87,1.51,1.32,2.23a19.17,19.17,0,0,0,7.21,6.67,6.67,6.67,0,0,1,.64.37c.19.13.3.08.44-.07l1.83-1.83a2.17,2.17,0,0,1,3.27,0c1.22,1.21,2.43,2.44,3.65,3.64a3,3,0,0,1,1,1.59Z"/></g></g></svg>