<svg xmlns="http://www.w3.org/2000/svg" viewBox="0 0 345 284.45"><defs><style>.cls-1{opacity:0.44;}.cls-2{fill:#7ec8e9;}</style></defs><title>background 2</title><g id="Layer_2" data-name="Layer 2"><g id="Layer_1-2" data-name="Layer 1"><g class="cls-1"><circle class="cls-2" cx="47.05" cy="81.05" r="7.05"/><circle class="cls-2" cx="83.41" cy="81.05" r="7.05"/><circle class="cls-2" cx="119.77" cy="81.05" r="7.05"/><circle class="cls-2" cx="156.14" cy="81.05" r="7.05"/><circle class="cls-2" cx="192.5" cy="81.05" r="7.05"/><circle class="cls-2" cx="228.86" cy="81.05" r="7.05"/><circle class="cls-2" cx="265.23" cy="81.05" r="7.05"/><circle class="cls-2" cx="301.59" cy="81.05" r="7.05"/><circle class="cls-2" cx="337.95" cy="81.05" r="7.05"/><circle class="cls-2" cx="47.05" cy="113.77" r="7.05"/><circle class="cls-2" cx="83.41" cy="113.77" r="7.05"/><circle class="cls-2" cx="119.77" cy="113.77" r="7.05"/><circle class="cls-2" cx="156.14" cy="113.77" r="7.05"/><circle class="cls-2" cx="192.5" cy="113.77" r="7.05"/><circle class="cls-2" cx="228.86" cy="113.77" r="7.05"/><circle class="cls-2" cx="265.23" cy="113.77" r="7.05"/><circle class="cls-2" cx="301.59" cy="113.77" r="7.05"/><circle class="cls-2" cx="337.95" cy="113.77" r="7.05"/><circle class="cls-2" cx="47.05" cy="146.5" r="7.05"/><circle class="cls-2" cx="83.41" cy="146.5" r="7.05"/><circle class="cls-2" cx="119.77" cy="146.5" r="7.05"/><circle class="cls-2" cx="156.14" cy="146.5" r="7.05"/><circle class="cls-2" cx="192.5" cy="146.5" r="7.05"/><circle class="cls-2" cx="228.86" cy="146.5" r="7.05"/><circle class="cls-2" cx="265.23" cy="146.5" r="7.05"/><circle class="cls-2" cx="301.59" cy="146.5" r="7.05"/><circle class="cls-2" cx="337.95" cy="146.5" r="7.05"/><circle class="cls-2" cx="47.05" cy="179.23" r="7.05"/><circle class="cls-2" cx="83.41" cy="179.23" r="7.05"/><circle class="cls-2" cx="119.77" cy="179.23" r="7.05"/><circle class="cls-2" cx="156.14" cy="179.23" r="7.05"/><circle class="cls-2" cx="192.5" cy="179.23" r="7.05"/><circle class="cls-2" cx="228.86" cy="179.23" r="7.05"/><circle class="cls-2" cx="265.23" cy="179.23" r="7.05"/><circle class="cls-2" cx="301.59" cy="179.23" r="7.05"/><circle class="cls-2" cx="337.95" cy="179.23" r="7.05"/><circle class="cls-2" cx="47.05" cy="211.95" r="7.05"/><circle class="cls-2" cx="83.41" cy="211.95" r="7.05"/><circle class="cls-2" cx="119.77" cy="211.95" r="7.05"/><circle class="cls-2" cx="156.14" cy="211.95" r="7.05"/><circle class="cls-2" cx="192.5" cy="211.95" r="7.05"/><circle class="cls-2" cx="228.86" cy="211.95" r="7.05"/><circle class="cls-2" cx="265.23" cy="211.95" r="7.05"/><circle class="cls-2" cx="301.59" cy="211.95" r="7.05"/><circle class="cls-2" cx="337.95" cy="211.95" r="7.05"/><circle class="cls-2" cx="47.05" cy="244.68" r="7.05"/><circle class="cls-2" cx="83.41" cy="244.68" r="7.05"/><circle class="cls-2" cx="119.77" cy="244.68" r="7.05"/><circle class="cls-2" cx="156.14" cy="244.68" r="7.05"/><circle class="cls-2" cx="192.5" cy="244.68" r="7.05"/><circle class="cls-2" cx="228.86" cy="244.68" r="7.05"/><circle class="cls-2" cx="265.23" cy="244.68" r="7.05"/><circle class="cls-2" cx="301.59" cy="244.68" r="7.05"/><circle class="cls-2" cx="337.95" cy="244.68" r="7.05"/><circle class="cls-2" cx="47.05" cy="277.41" r="7.05"/><circle class="cls-2" cx="7.05" cy="81.05" r="7.05"/><circle class="cls-2" cx="47.05" cy="44.05" r="7.05"/><circle class="cls-2" cx="83.41" cy="44.05" r="7.05"/><circle class="cls-2" cx="119.77" cy="44.05" r="7.05"/><circle class="cls-2" cx="156.14" cy="44.05" r="7.05"/><circle class="cls-2" cx="192.5" cy="44.05" r="7.05"/><circle class="cls-2" cx="228.86" cy="44.05" r="7.05"/><circle class="cls-2" cx="265.23" cy="44.05" r="7.05"/><circle class="cls-2" cx="301.59" cy="44.05" r="7.05"/><circle class="cls-2" cx="337.95" cy="44.05" r="7.05"/><circle class="cls-2" cx="7.05" cy="44.05" r="7.05"/><circle class="cls-2" cx="47.05" cy="7.05" r="7.05"/><circle class="cls-2" cx="83.41" cy="7.05" r="7.05"/><circle class="cls-2" cx="119.77" cy="7.05" r="7.05"/><circle class="cls-2" cx="156.14" cy="7.05" r="7.05"/><circle class="cls-2" cx="192.5" cy="7.05" r="7.05"/><circle class="cls-2" cx="228.86" cy="7.05" r="7.05"/><circle class="cls-2" cx="265.23" cy="7.05" r="7.05"/><circle class="cls-2" cx="301.59" cy="7.05" r="7.05"/><circle class="cls-2" cx="337.95" cy="7.05" r="7.05"/><circle class="cls-2" cx="7.05" cy="7.05" r="7.05"/><circle class="cls-2" cx="7.05" cy="113.77" r="7.05"/><circle class="cls-2" cx="7.05" cy="146.5" r="7.05"/><circle class="cls-2" cx="7.05" cy="179.23" r="7.05"/><circle class="cls-2" cx="7.05" cy="211.95" r="7.05"/><circle class="cls-2" cx="7.05" cy="244.68" r="7.05"/><circle class="cls-2" cx="7.05" cy="277.41" r="7.05"/><circle class="cls-2" cx="83.41" cy="277.41" r="7.05"/><circle class="cls-2" cx="119.77" cy="277.41" r="7.05"/><circle class="cls-2" cx="156.14" cy="277.41" r="7.05"/><circle class="cls-2" cx="192.5" cy="277.41" r="7.05"/><circle class="cls-2" cx="228.86" cy="277.41" r="7.05"/><circle class="cls-2" cx="265.23" cy="277.41" r="7.05"/><circle class="cls-2" cx="301.59" cy="277.41" r="7.05"/><circle class="cls-2" cx="337.95" cy="277.41" r="7.05"/></g></g></g></svg>