<svg xmlns="http://www.w3.org/2000/svg" xmlns:xlink="http://www.w3.org/1999/xlink" viewBox="0 0 2335.95 1008.01"><defs><style>.cls-1{fill:none;}.cls-2{fill:url(#linear-gradient);}.cls-3{fill:url(#linear-gradient-2);}.cls-4{clip-path:url(#clip-path);}.cls-5{opacity:0.17;}.cls-6{fill:#9d9d9d;}.cls-7{clip-path:url(#clip-path-2);}</style><linearGradient id="linear-gradient" x1="1557.6" y1="352.15" x2="1557.6" y2="-338.92" gradientTransform="translate(-344.96 747.72)" gradientUnits="userSpaceOnUse"><stop offset="0" stop-color="#e3e3e3" stop-opacity="0.2"/><stop offset="1" stop-color="#fff"/></linearGradient><linearGradient id="linear-gradient-2" x1="1552.24" y1="340.1" x2="1552.24" y2="-617.25" gradientTransform="matrix(-1, 0, 0, 1, 2766.55, 747.72)" xlink:href="#linear-gradient"/><clipPath id="clip-path" transform="translate(0 -91.86)"><rect class="cls-1" x="252.59" y="327" width="178.72" height="453.93"/></clipPath><clipPath id="clip-path-2" transform="translate(0 -91.86)"><rect class="cls-1" x="1865.91" width="307.15" height="560.98"/></clipPath></defs><title>bg</title><g id="Layer_2" data-name="Layer 2"><g id="Layer_1-2" data-name="Layer 1"><path class="cls-2" d="M253.89,919.56l486.18,168.57a211.86,211.86,0,0,0,97.59,9.87L2171.38,870.2V408.8H253.89Z" transform="translate(0 -91.86)"/><path class="cls-3" d="M2173.06,838l-486.18,233.53c-31.39,15.08-64.75,19.75-97.59,13.67L255.57,838V130.46H2173.06Z" transform="translate(0 -91.86)"/><g class="cls-4"><g class="cls-5"><ellipse class="cls-6" cx="72.73" cy="682.24" rx="5.62" ry="5.91" transform="translate(-471.58 172.69) rotate(-46.41)"/><ellipse class="cls-6" cx="92.75" cy="661.21" rx="5.62" ry="5.91" transform="translate(-450.13 180.66) rotate(-46.41)"/><ellipse class="cls-6" cx="112.76" cy="640.18" rx="5.62" ry="5.91" transform="translate(-428.68 188.63) rotate(-46.41)"/><ellipse class="cls-6" cx="132.78" cy="619.15" rx="5.62" ry="5.91" transform="translate(-407.24 196.6) rotate(-46.41)"/><ellipse class="cls-6" cx="152.8" cy="598.13" rx="5.62" ry="5.91" transform="translate(-385.79 204.56) rotate(-46.41)"/><ellipse class="cls-6" cx="172.81" cy="577.1" rx="5.62" ry="5.91" transform="translate(-364.34 212.53) rotate(-46.41)"/><ellipse class="cls-6" cx="192.83" cy="556.07" rx="5.62" ry="5.91" transform="translate(-342.9 220.5) rotate(-46.41)"/><ellipse class="cls-6" cx="212.84" cy="535.04" rx="5.62" ry="5.91" transform="translate(-321.45 228.47) rotate(-46.41)"/><ellipse class="cls-6" cx="232.86" cy="514.01" rx="5.62" ry="5.91" transform="translate(-300 236.43) rotate(-46.41)"/><ellipse class="cls-6" cx="92.61" cy="701.16" rx="5.62" ry="5.91" transform="translate(-479.11 192.96) rotate(-46.41)"/><ellipse class="cls-6" cx="112.62" cy="680.13" rx="5.62" ry="5.91" transform="translate(-457.66 200.93) rotate(-46.41)"/><ellipse class="cls-6" cx="132.64" cy="659.1" rx="5.62" ry="5.91" transform="translate(-436.22 208.9) rotate(-46.41)"/><ellipse class="cls-6" cx="152.65" cy="638.07" rx="5.62" ry="5.91" transform="translate(-414.77 216.87) rotate(-46.41)"/><ellipse class="cls-6" cx="172.67" cy="617.04" rx="5.62" ry="5.91" transform="translate(-393.32 224.83) rotate(-46.41)"/><ellipse class="cls-6" cx="192.69" cy="596.02" rx="5.62" ry="5.91" transform="translate(-371.87 232.8) rotate(-46.41)"/><ellipse class="cls-6" cx="212.7" cy="574.99" rx="5.62" ry="5.91" transform="matrix(0.69, -0.72, 0.72, 0.69, -350.43, 240.77)"/><ellipse class="cls-6" cx="232.72" cy="553.96" rx="5.62" ry="5.91" transform="translate(-328.98 248.74) rotate(-46.41)"/><ellipse class="cls-6" cx="252.73" cy="532.93" rx="5.62" ry="5.91" transform="translate(-307.53 256.71) rotate(-46.41)"/><ellipse class="cls-6" cx="112.48" cy="720.07" rx="5.62" ry="5.91" transform="translate(-486.64 213.23) rotate(-46.41)"/><ellipse class="cls-6" cx="132.5" cy="699.05" rx="5.62" ry="5.91" transform="translate(-465.19 221.2) rotate(-46.41)"/><ellipse class="cls-6" cx="152.51" cy="678.02" rx="5.62" ry="5.91" transform="translate(-443.75 229.17) rotate(-46.41)"/><ellipse class="cls-6" cx="172.53" cy="656.99" rx="5.62" ry="5.91" transform="translate(-422.3 237.14) rotate(-46.41)"/><ellipse class="cls-6" cx="192.55" cy="635.96" rx="5.62" ry="5.91" transform="translate(-400.85 245.11) rotate(-46.41)"/><ellipse class="cls-6" cx="212.56" cy="614.93" rx="5.62" ry="5.91" transform="translate(-379.4 253.07) rotate(-46.41)"/><ellipse class="cls-6" cx="232.58" cy="593.9" rx="5.62" ry="5.91" transform="translate(-357.96 261.04) rotate(-46.41)"/><ellipse class="cls-6" cx="252.59" cy="572.88" rx="5.62" ry="5.91" transform="translate(-336.51 269.01) rotate(-46.41)"/><ellipse class="cls-6" cx="272.61" cy="551.85" rx="5.62" ry="5.91" transform="translate(-315.06 276.98) rotate(-46.41)"/><ellipse class="cls-6" cx="132.36" cy="738.99" rx="5.62" ry="5.91" transform="translate(-494.17 233.51) rotate(-46.41)"/><ellipse class="cls-6" cx="152.37" cy="717.96" rx="5.62" ry="5.91" transform="translate(-472.72 241.47) rotate(-46.41)"/><ellipse class="cls-6" cx="172.39" cy="696.94" rx="5.62" ry="5.91" transform="translate(-451.28 249.44) rotate(-46.41)"/><ellipse class="cls-6" cx="192.4" cy="675.91" rx="5.62" ry="5.91" transform="translate(-429.83 257.41) rotate(-46.41)"/><ellipse class="cls-6" cx="212.42" cy="654.88" rx="5.62" ry="5.91" transform="translate(-408.38 265.38) rotate(-46.41)"/><ellipse class="cls-6" cx="232.44" cy="633.85" rx="5.62" ry="5.91" transform="translate(-386.94 273.34) rotate(-46.41)"/><ellipse class="cls-6" cx="252.45" cy="612.82" rx="5.62" ry="5.91" transform="translate(-365.49 281.31) rotate(-46.41)"/><ellipse class="cls-6" cx="272.47" cy="591.79" rx="5.62" ry="5.91" transform="translate(-344.04 289.28) rotate(-46.41)"/><ellipse class="cls-6" cx="292.48" cy="570.77" rx="5.62" ry="5.91" transform="translate(-322.59 297.25) rotate(-46.41)"/><ellipse class="cls-6" cx="152.23" cy="757.91" rx="5.62" ry="5.91" transform="translate(-501.7 253.78) rotate(-46.41)"/><ellipse class="cls-6" cx="172.25" cy="736.88" rx="5.62" ry="5.91" transform="translate(-480.26 261.74) rotate(-46.41)"/><ellipse class="cls-6" cx="192.26" cy="715.85" rx="5.62" ry="5.91" transform="translate(-458.81 269.71) rotate(-46.41)"/><ellipse class="cls-6" cx="212.28" cy="694.83" rx="5.62" ry="5.91" transform="translate(-437.36 277.68) rotate(-46.41)"/><ellipse class="cls-6" cx="232.3" cy="673.8" rx="5.62" ry="5.91" transform="translate(-415.91 285.65) rotate(-46.41)"/><ellipse class="cls-6" cx="252.31" cy="652.77" rx="5.62" ry="5.91" transform="translate(-394.47 293.62) rotate(-46.41)"/><ellipse class="cls-6" cx="272.33" cy="631.74" rx="5.62" ry="5.91" transform="translate(-373.02 301.58) rotate(-46.41)"/><ellipse class="cls-6" cx="292.34" cy="610.71" rx="5.62" ry="5.91" transform="translate(-351.57 309.55) rotate(-46.41)"/><ellipse class="cls-6" cx="312.36" cy="589.68" rx="5.62" ry="5.91" transform="translate(-330.12 317.52) rotate(-46.41)"/><ellipse class="cls-6" cx="172.11" cy="776.83" rx="5.62" ry="5.91" transform="translate(-509.23 274.05) rotate(-46.41)"/><ellipse class="cls-6" cx="192.12" cy="755.8" rx="5.62" ry="5.91" transform="translate(-487.79 282.02) rotate(-46.41)"/><ellipse class="cls-6" cx="212.14" cy="734.77" rx="5.62" ry="5.91" transform="translate(-466.34 289.98) rotate(-46.41)"/><ellipse class="cls-6" cx="232.15" cy="713.74" rx="5.62" ry="5.91" transform="translate(-444.89 297.95) rotate(-46.41)"/><ellipse class="cls-6" cx="252.17" cy="692.72" rx="5.62" ry="5.91" transform="translate(-423.44 305.92) rotate(-46.41)"/><ellipse class="cls-6" cx="272.19" cy="671.69" rx="5.62" ry="5.91" transform="translate(-402 313.89) rotate(-46.41)"/><ellipse class="cls-6" cx="292.2" cy="650.66" rx="5.62" ry="5.91" transform="translate(-380.55 321.85) rotate(-46.41)"/><ellipse class="cls-6" cx="312.22" cy="629.63" rx="5.62" ry="5.91" transform="translate(-359.1 329.82) rotate(-46.41)"/><ellipse class="cls-6" cx="332.23" cy="608.6" rx="5.62" ry="5.91" transform="translate(-337.65 337.79) rotate(-46.41)"/><ellipse class="cls-6" cx="191.98" cy="795.75" rx="5.62" ry="5.91" transform="translate(-516.76 294.32) rotate(-46.41)"/><ellipse class="cls-6" cx="50.71" cy="705.37" rx="5.62" ry="5.91" transform="translate(-495.17 163.93) rotate(-46.41)"/><ellipse class="cls-6" cx="50.26" cy="660.85" rx="5.62" ry="5.91" transform="translate(-463.07 149.78) rotate(-46.41)"/><ellipse class="cls-6" cx="70.28" cy="639.82" rx="5.62" ry="5.91" transform="translate(-441.62 157.74) rotate(-46.41)"/><ellipse class="cls-6" cx="90.29" cy="618.79" rx="5.62" ry="5.91" transform="translate(-420.17 165.71) rotate(-46.41)"/><ellipse class="cls-6" cx="110.31" cy="597.77" rx="5.62" ry="5.91" transform="translate(-398.72 173.68) rotate(-46.41)"/><ellipse class="cls-6" cx="130.33" cy="576.74" rx="5.62" ry="5.91" transform="translate(-377.28 181.65) rotate(-46.41)"/><ellipse class="cls-6" cx="150.34" cy="555.71" rx="5.62" ry="5.91" transform="matrix(0.69, -0.72, 0.72, 0.69, -355.83, 189.61)"/><ellipse class="cls-6" cx="170.36" cy="534.68" rx="5.62" ry="5.91" transform="translate(-334.38 197.58) rotate(-46.41)"/><ellipse class="cls-6" cx="190.37" cy="513.65" rx="5.62" ry="5.91" transform="translate(-312.93 205.55) rotate(-46.41)"/><ellipse class="cls-6" cx="210.39" cy="492.62" rx="5.62" ry="5.91" transform="translate(-291.49 213.52) rotate(-46.41)"/><ellipse class="cls-6" cx="28.24" cy="683.98" rx="5.62" ry="5.91" transform="translate(-486.66 141.01) rotate(-46.41)"/><ellipse class="cls-6" cx="27.79" cy="639.46" rx="5.62" ry="5.91" transform="translate(-454.55 126.86) rotate(-46.41)"/><ellipse class="cls-6" cx="47.81" cy="618.43" rx="5.62" ry="5.91" transform="translate(-433.1 134.83) rotate(-46.41)"/><ellipse class="cls-6" cx="67.82" cy="597.41" rx="5.62" ry="5.91" transform="translate(-411.66 142.79) rotate(-46.41)"/><ellipse class="cls-6" cx="87.84" cy="576.38" rx="5.62" ry="5.91" transform="translate(-390.21 150.76) rotate(-46.41)"/><ellipse class="cls-6" cx="107.86" cy="555.35" rx="5.62" ry="5.91" transform="translate(-368.76 158.73) rotate(-46.41)"/><ellipse class="cls-6" cx="127.87" cy="534.32" rx="5.62" ry="5.91" transform="translate(-347.31 166.7) rotate(-46.41)"/><ellipse class="cls-6" cx="147.89" cy="513.29" rx="5.62" ry="5.91" transform="translate(-325.87 174.66) rotate(-46.41)"/><ellipse class="cls-6" cx="167.9" cy="492.26" rx="5.62" ry="5.91" transform="translate(-304.42 182.63) rotate(-46.41)"/><ellipse class="cls-6" cx="187.92" cy="471.24" rx="5.62" ry="5.91" transform="translate(-282.97 190.6) rotate(-46.41)"/><ellipse class="cls-6" cx="5.77" cy="662.59" rx="5.62" ry="5.91" transform="translate(-478.14 118.09) rotate(-46.41)"/><ellipse class="cls-6" cx="70.59" cy="724.29" rx="5.62" ry="5.91" transform="translate(-502.7 184.2) rotate(-46.41)"/><ellipse class="cls-6" cx="90.46" cy="743.21" rx="5.62" ry="5.91" transform="translate(-510.23 204.47) rotate(-46.41)"/><ellipse class="cls-6" cx="110.34" cy="762.12" rx="5.62" ry="5.91" transform="translate(-517.76 224.74) rotate(-46.41)"/><ellipse class="cls-6" cx="130.21" cy="781.04" rx="5.62" ry="5.91" transform="translate(-525.29 245.01) rotate(-46.41)"/><ellipse class="cls-6" cx="150.09" cy="799.96" rx="5.62" ry="5.91" transform="translate(-532.83 265.28) rotate(-46.41)"/><ellipse class="cls-6" cx="169.96" cy="818.88" rx="5.62" ry="5.91" transform="translate(-540.36 285.55) rotate(-46.41)"/><ellipse class="cls-6" cx="212" cy="774.72" rx="5.62" ry="5.91" transform="translate(-495.32 302.29) rotate(-46.41)"/><ellipse class="cls-6" cx="232.01" cy="753.69" rx="5.62" ry="5.91" transform="translate(-473.87 310.25) rotate(-46.41)"/><ellipse class="cls-6" cx="252.03" cy="732.66" rx="5.62" ry="5.91" transform="translate(-452.42 318.22) rotate(-46.41)"/><ellipse class="cls-6" cx="272.05" cy="711.63" rx="5.62" ry="5.91" transform="translate(-430.97 326.19) rotate(-46.41)"/><ellipse class="cls-6" cx="292.06" cy="690.61" rx="5.62" ry="5.91" transform="translate(-409.53 334.16) rotate(-46.41)"/><ellipse class="cls-6" cx="312.08" cy="669.58" rx="5.62" ry="5.91" transform="translate(-388.08 342.13) rotate(-46.41)"/><ellipse class="cls-6" cx="332.09" cy="648.55" rx="5.62" ry="5.91" transform="translate(-366.63 350.09) rotate(-46.41)"/><ellipse class="cls-6" cx="352.11" cy="627.52" rx="5.62" ry="5.91" transform="translate(-345.19 358.06) rotate(-46.41)"/><ellipse class="cls-6" cx="252.67" cy="493.19" rx="5.62" ry="5.91" transform="translate(-278.77 244.32) rotate(-46.41)"/><ellipse class="cls-6" cx="272.55" cy="512.11" rx="5.62" ry="5.91" transform="translate(-286.3 264.59) rotate(-46.41)"/><ellipse class="cls-6" cx="292.42" cy="531.03" rx="5.62" ry="5.91" transform="translate(-293.83 284.86) rotate(-46.41)"/><ellipse class="cls-6" cx="312.3" cy="549.95" rx="5.62" ry="5.91" transform="translate(-301.36 305.14) rotate(-46.41)"/><ellipse class="cls-6" cx="332.17" cy="568.87" rx="5.62" ry="5.91" transform="translate(-308.89 325.41) rotate(-46.41)"/><ellipse class="cls-6" cx="352.05" cy="587.78" rx="5.62" ry="5.91" transform="translate(-316.42 345.68) rotate(-46.41)"/><ellipse class="cls-6" cx="230.2" cy="471.81" rx="5.62" ry="5.91" transform="translate(-270.25 221.41) rotate(-46.41)"/><ellipse class="cls-6" cx="207.73" cy="450.42" rx="5.62" ry="5.91" transform="translate(-261.74 198.49) rotate(-46.41)"/><ellipse class="cls-6" cx="371.92" cy="606.7" rx="5.62" ry="5.91" transform="translate(-323.95 365.95) rotate(-46.41)"/><ellipse class="cls-6" cx="272.49" cy="472.38" rx="5.62" ry="5.91" transform="translate(-257.54 252.21) rotate(-46.41)"/><ellipse class="cls-6" cx="292.36" cy="491.29" rx="5.62" ry="5.91" transform="translate(-265.07 272.48) rotate(-46.41)"/><ellipse class="cls-6" cx="312.24" cy="510.21" rx="5.62" ry="5.91" transform="translate(-272.6 292.75) rotate(-46.41)"/><ellipse class="cls-6" cx="332.11" cy="529.13" rx="5.62" ry="5.91" transform="translate(-280.13 313.02) rotate(-46.41)"/><ellipse class="cls-6" cx="351.99" cy="548.05" rx="5.62" ry="5.91" transform="translate(-287.66 333.3) rotate(-46.41)"/><ellipse class="cls-6" cx="371.86" cy="566.97" rx="5.62" ry="5.91" transform="translate(-295.19 353.57) rotate(-46.41)"/><ellipse class="cls-6" cx="250.02" cy="450.99" rx="5.62" ry="5.91" transform="translate(-249.02 229.29) rotate(-46.41)"/><ellipse class="cls-6" cx="227.55" cy="429.6" rx="5.62" ry="5.91" transform="translate(-240.51 206.38) rotate(-46.41)"/><ellipse class="cls-6" cx="391.74" cy="585.88" rx="5.62" ry="5.91" transform="translate(-302.72 373.84) rotate(-46.41)"/></g></g><g class="cls-7"><g class="cls-5"><ellipse class="cls-6" cx="2011.16" cy="350.25" rx="5.62" ry="5.91" transform="translate(370.86 1473.66) rotate(-46.41)"/><ellipse class="cls-6" cx="2031.18" cy="329.23" rx="5.62" ry="5.91" transform="translate(392.31 1481.63) rotate(-46.41)"/><ellipse class="cls-6" cx="2051.2" cy="308.2" rx="5.62" ry="5.91" transform="translate(413.75 1489.6) rotate(-46.41)"/><ellipse class="cls-6" cx="2071.21" cy="287.17" rx="5.62" ry="5.91" transform="translate(435.2 1497.56) rotate(-46.41)"/><ellipse class="cls-6" cx="2091.23" cy="266.14" rx="5.62" ry="5.91" transform="translate(456.65 1505.53) rotate(-46.41)"/><ellipse class="cls-6" cx="2111.24" cy="245.11" rx="5.62" ry="5.91" transform="translate(478.1 1513.5) rotate(-46.41)"/><ellipse class="cls-6" cx="2131.26" cy="224.09" rx="5.62" ry="5.91" transform="translate(499.54 1521.47) rotate(-46.41)"/><ellipse class="cls-6" cx="2151.28" cy="203.06" rx="5.62" ry="5.91" transform="translate(520.99 1529.43) rotate(-46.41)"/><ellipse class="cls-6" cx="2171.29" cy="182.03" rx="5.62" ry="5.91" transform="translate(542.44 1537.4) rotate(-46.41)"/><ellipse class="cls-6" cx="2031.04" cy="369.17" rx="5.62" ry="5.91" transform="translate(363.33 1493.93) rotate(-46.41)"/><ellipse class="cls-6" cx="2051.06" cy="348.14" rx="5.62" ry="5.91" transform="translate(384.78 1501.9) rotate(-46.41)"/><ellipse class="cls-6" cx="2071.07" cy="327.12" rx="5.62" ry="5.91" transform="translate(406.22 1509.87) rotate(-46.41)"/><ellipse class="cls-6" cx="2091.09" cy="306.09" rx="5.62" ry="5.91" transform="translate(427.67 1517.83) rotate(-46.41)"/><ellipse class="cls-6" cx="2111.1" cy="285.06" rx="5.62" ry="5.91" transform="translate(449.12 1525.8) rotate(-46.41)"/><ellipse class="cls-6" cx="2131.12" cy="264.03" rx="5.62" ry="5.91" transform="translate(470.56 1533.77) rotate(-46.41)"/><ellipse class="cls-6" cx="2151.13" cy="243" rx="5.62" ry="5.91" transform="translate(492.01 1541.74) rotate(-46.41)"/><ellipse class="cls-6" cx="2171.15" cy="221.97" rx="5.62" ry="5.91" transform="translate(513.46 1549.71) rotate(-46.41)"/><ellipse class="cls-6" cx="2191.17" cy="200.95" rx="5.62" ry="5.91" transform="translate(534.91 1557.67) rotate(-46.41)"/><ellipse class="cls-6" cx="2050.91" cy="388.09" rx="5.62" ry="5.91" transform="translate(355.8 1514.2) rotate(-46.41)"/><ellipse class="cls-6" cx="2070.93" cy="367.06" rx="5.62" ry="5.91" transform="translate(377.24 1522.17) rotate(-46.41)"/><ellipse class="cls-6" cx="2090.95" cy="346.03" rx="5.62" ry="5.91" transform="translate(398.69 1530.14) rotate(-46.41)"/><ellipse class="cls-6" cx="2110.96" cy="325.01" rx="5.62" ry="5.91" transform="translate(420.14 1538.11) rotate(-46.41)"/><ellipse class="cls-6" cx="2130.98" cy="303.98" rx="5.62" ry="5.91" transform="translate(441.59 1546.07) rotate(-46.41)"/><ellipse class="cls-6" cx="2150.99" cy="282.95" rx="5.62" ry="5.91" transform="translate(463.03 1554.04) rotate(-46.41)"/><ellipse class="cls-6" cx="2171.01" cy="261.92" rx="5.62" ry="5.91" transform="translate(484.48 1562.01) rotate(-46.41)"/><ellipse class="cls-6" cx="2191.03" cy="240.89" rx="5.62" ry="5.91" transform="translate(505.93 1569.98) rotate(-46.41)"/><ellipse class="cls-6" cx="2211.04" cy="219.86" rx="5.62" ry="5.91" transform="translate(527.38 1577.94) rotate(-46.41)"/><ellipse class="cls-6" cx="2070.79" cy="407.01" rx="5.62" ry="5.91" transform="translate(348.27 1534.47) rotate(-46.41)"/><ellipse class="cls-6" cx="2090.81" cy="385.98" rx="5.62" ry="5.91" transform="translate(369.71 1542.44) rotate(-46.41)"/><ellipse class="cls-6" cx="2110.82" cy="364.95" rx="5.62" ry="5.91" transform="translate(391.16 1550.41) rotate(-46.41)"/><ellipse class="cls-6" cx="2130.84" cy="343.92" rx="5.62" ry="5.91" transform="translate(412.61 1558.38) rotate(-46.41)"/><ellipse class="cls-6" cx="2150.85" cy="322.9" rx="5.62" ry="5.91" transform="translate(434.06 1566.34) rotate(-46.41)"/><ellipse class="cls-6" cx="2170.87" cy="301.87" rx="5.62" ry="5.91" transform="translate(455.5 1574.31) rotate(-46.41)"/><ellipse class="cls-6" cx="2190.88" cy="280.84" rx="5.62" ry="5.91" transform="translate(476.95 1582.28) rotate(-46.41)"/><ellipse class="cls-6" cx="2210.9" cy="259.81" rx="5.62" ry="5.91" transform="matrix(0.69, -0.72, 0.72, 0.69, 498.4, 1590.25)"/><ellipse class="cls-6" cx="2230.92" cy="238.78" rx="5.62" ry="5.91" transform="translate(519.85 1598.22) rotate(-46.41)"/><ellipse class="cls-6" cx="2090.66" cy="425.93" rx="5.62" ry="5.91" transform="translate(340.74 1554.74) rotate(-46.41)"/><ellipse class="cls-6" cx="2110.68" cy="404.9" rx="5.62" ry="5.91" transform="translate(362.18 1562.71) rotate(-46.41)"/><ellipse class="cls-6" cx="2130.7" cy="383.87" rx="5.62" ry="5.91" transform="translate(383.63 1570.68) rotate(-46.41)"/><ellipse class="cls-6" cx="2150.71" cy="362.84" rx="5.62" ry="5.91" transform="translate(405.08 1578.65) rotate(-46.41)"/><ellipse class="cls-6" cx="2170.73" cy="341.81" rx="5.62" ry="5.91" transform="translate(426.53 1586.62) rotate(-46.41)"/><ellipse class="cls-6" cx="2190.74" cy="320.79" rx="5.62" ry="5.91" transform="translate(447.97 1594.58) rotate(-46.41)"/><ellipse class="cls-6" cx="2210.76" cy="299.76" rx="5.62" ry="5.91" transform="translate(469.42 1602.55) rotate(-46.41)"/><ellipse class="cls-6" cx="2230.78" cy="278.73" rx="5.62" ry="5.91" transform="translate(490.87 1610.52) rotate(-46.41)"/><ellipse class="cls-6" cx="2250.79" cy="257.7" rx="5.62" ry="5.91" transform="translate(512.31 1618.49) rotate(-46.41)"/><ellipse class="cls-6" cx="2110.54" cy="444.85" rx="5.62" ry="5.91" transform="translate(333.21 1575.02) rotate(-46.41)"/><ellipse class="cls-6" cx="2130.56" cy="423.82" rx="5.62" ry="5.91" transform="translate(354.65 1582.98) rotate(-46.41)"/><ellipse class="cls-6" cx="2150.57" cy="402.79" rx="5.62" ry="5.91" transform="translate(376.1 1590.95) rotate(-46.41)"/><ellipse class="cls-6" cx="2170.59" cy="381.76" rx="5.62" ry="5.91" transform="translate(397.55 1598.92) rotate(-46.41)"/><ellipse class="cls-6" cx="2190.6" cy="360.73" rx="5.62" ry="5.91" transform="translate(418.99 1606.89) rotate(-46.41)"/><ellipse class="cls-6" cx="2210.62" cy="339.7" rx="5.62" ry="5.91" transform="translate(440.44 1614.85) rotate(-46.41)"/><ellipse class="cls-6" cx="2230.63" cy="318.68" rx="5.62" ry="5.91" transform="translate(461.89 1622.82) rotate(-46.41)"/><ellipse class="cls-6" cx="2250.65" cy="297.65" rx="5.62" ry="5.91" transform="translate(483.34 1630.79) rotate(-46.41)"/><ellipse class="cls-6" cx="2270.67" cy="276.62" rx="5.62" ry="5.91" transform="translate(504.78 1638.76) rotate(-46.41)"/><ellipse class="cls-6" cx="2130.41" cy="463.76" rx="5.62" ry="5.91" transform="translate(325.67 1595.29) rotate(-46.41)"/><ellipse class="cls-6" cx="1989.15" cy="373.39" rx="5.62" ry="5.91" transform="translate(347.27 1464.9) rotate(-46.41)"/><ellipse class="cls-6" cx="1988.69" cy="328.87" rx="5.62" ry="5.91" transform="translate(379.37 1450.74) rotate(-46.41)"/><ellipse class="cls-6" cx="2008.71" cy="307.84" rx="5.62" ry="5.91" transform="translate(400.82 1458.71) rotate(-46.41)"/><ellipse class="cls-6" cx="2028.73" cy="286.81" rx="5.62" ry="5.91" transform="translate(422.27 1466.68) rotate(-46.41)"/><ellipse class="cls-6" cx="2048.74" cy="265.78" rx="5.62" ry="5.91" transform="translate(443.72 1474.65) rotate(-46.41)"/><ellipse class="cls-6" cx="2068.76" cy="244.75" rx="5.62" ry="5.91" transform="translate(465.16 1482.61) rotate(-46.41)"/><ellipse class="cls-6" cx="2088.77" cy="223.73" rx="5.62" ry="5.91" transform="translate(486.61 1490.58) rotate(-46.41)"/><ellipse class="cls-6" cx="2108.79" cy="202.7" rx="5.62" ry="5.91" transform="translate(508.06 1498.55) rotate(-46.41)"/><ellipse class="cls-6" cx="2128.81" cy="181.67" rx="5.62" ry="5.91" transform="translate(529.5 1506.52) rotate(-46.41)"/><ellipse class="cls-6" cx="2148.82" cy="160.64" rx="5.62" ry="5.91" transform="translate(550.95 1514.49) rotate(-46.41)"/><ellipse class="cls-6" cx="1966.68" cy="352" rx="5.62" ry="5.91" transform="translate(355.78 1441.98) rotate(-46.41)"/><ellipse class="cls-6" cx="1966.22" cy="307.48" rx="5.62" ry="5.91" transform="translate(387.89 1427.83) rotate(-46.41)"/><ellipse class="cls-6" cx="1986.24" cy="286.45" rx="5.62" ry="5.91" transform="translate(409.33 1435.79) rotate(-46.41)"/><ellipse class="cls-6" cx="2006.26" cy="265.42" rx="5.62" ry="5.91" transform="translate(430.78 1443.76) rotate(-46.41)"/><ellipse class="cls-6" cx="2026.27" cy="244.39" rx="5.62" ry="5.91" transform="translate(452.23 1451.73) rotate(-46.41)"/><ellipse class="cls-6" cx="2046.29" cy="223.37" rx="5.62" ry="5.91" transform="translate(473.68 1459.7) rotate(-46.41)"/><ellipse class="cls-6" cx="2066.3" cy="202.34" rx="5.62" ry="5.91" transform="translate(495.12 1467.66) rotate(-46.41)"/><ellipse class="cls-6" cx="2086.32" cy="181.31" rx="5.62" ry="5.91" transform="translate(516.57 1475.63) rotate(-46.41)"/><ellipse class="cls-6" cx="2106.34" cy="160.28" rx="5.62" ry="5.91" transform="translate(538.02 1483.6) rotate(-46.41)"/><ellipse class="cls-6" cx="2126.35" cy="139.25" rx="5.62" ry="5.91" transform="translate(559.47 1491.57) rotate(-46.41)"/><ellipse class="cls-6" cx="1944.21" cy="330.61" rx="5.62" ry="5.91" transform="translate(364.3 1419.06) rotate(-46.41)"/><ellipse class="cls-6" cx="2009.02" cy="392.3" rx="5.62" ry="5.91" transform="translate(339.74 1485.17) rotate(-46.41)"/><ellipse class="cls-6" cx="2028.9" cy="411.22" rx="5.62" ry="5.91" transform="translate(332.21 1505.44) rotate(-46.41)"/><ellipse class="cls-6" cx="2048.77" cy="430.14" rx="5.62" ry="5.91" transform="translate(324.67 1525.71) rotate(-46.41)"/><ellipse class="cls-6" cx="2068.65" cy="449.06" rx="5.62" ry="5.91" transform="translate(317.14 1545.98) rotate(-46.41)"/><ellipse class="cls-6" cx="2088.52" cy="467.98" rx="5.62" ry="5.91" transform="translate(309.61 1566.25) rotate(-46.41)"/><ellipse class="cls-6" cx="2108.4" cy="486.89" rx="5.62" ry="5.91" transform="translate(302.08 1586.52) rotate(-46.41)"/><ellipse class="cls-6" cx="2150.43" cy="442.73" rx="5.62" ry="5.91" transform="translate(347.12 1603.25) rotate(-46.41)"/><ellipse class="cls-6" cx="2170.45" cy="421.71" rx="5.62" ry="5.91" transform="translate(368.57 1611.22) rotate(-46.41)"/><ellipse class="cls-6" cx="2190.46" cy="400.68" rx="5.62" ry="5.91" transform="translate(390.02 1619.19) rotate(-46.41)"/><ellipse class="cls-6" cx="2210.48" cy="379.65" rx="5.62" ry="5.91" transform="translate(411.46 1627.16) rotate(-46.41)"/><ellipse class="cls-6" cx="2150.09" cy="485.44" rx="5.62" ry="5.91" transform="translate(316.09 1616.27) rotate(-46.41)"/><ellipse class="cls-6" cx="2128.07" cy="508.57" rx="5.62" ry="5.91" transform="translate(292.49 1607.5) rotate(-46.41)"/><ellipse class="cls-6" cx="2170.1" cy="464.41" rx="5.62" ry="5.91" transform="translate(337.53 1624.24) rotate(-46.41)"/><ellipse class="cls-6" cx="2190.12" cy="443.38" rx="5.62" ry="5.91" transform="translate(358.98 1632.2) rotate(-46.41)"/><ellipse class="cls-6" cx="2210.14" cy="422.35" rx="5.62" ry="5.91" transform="translate(380.43 1640.17) rotate(-46.41)"/><ellipse class="cls-6" cx="2230.15" cy="401.32" rx="5.62" ry="5.91" transform="translate(401.87 1648.14) rotate(-46.41)"/><ellipse class="cls-6" cx="2230.49" cy="358.62" rx="5.62" ry="5.91" transform="translate(432.91 1635.13) rotate(-46.41)"/><ellipse class="cls-6" cx="2250.51" cy="337.59" rx="5.62" ry="5.91" transform="translate(454.36 1643.09) rotate(-46.41)"/><ellipse class="cls-6" cx="2270.53" cy="316.57" rx="5.62" ry="5.91" transform="translate(475.81 1651.06) rotate(-46.41)"/><ellipse class="cls-6" cx="2290.54" cy="295.54" rx="5.62" ry="5.91" transform="translate(497.25 1659.03) rotate(-46.41)"/><ellipse class="cls-6" cx="2191.11" cy="161.21" rx="5.62" ry="5.91" transform="translate(563.67 1545.29) rotate(-46.41)"/><ellipse class="cls-6" cx="2210.98" cy="180.13" rx="5.62" ry="5.91" transform="translate(556.14 1565.56) rotate(-46.41)"/><ellipse class="cls-6" cx="2230.86" cy="199.05" rx="5.62" ry="5.91" transform="translate(548.61 1585.83) rotate(-46.41)"/><ellipse class="cls-6" cx="2250.73" cy="217.96" rx="5.62" ry="5.91" transform="translate(541.08 1606.1) rotate(-46.41)"/><ellipse class="cls-6" cx="2270.61" cy="236.88" rx="5.62" ry="5.91" transform="translate(533.55 1626.37) rotate(-46.41)"/><ellipse class="cls-6" cx="2290.48" cy="255.8" rx="5.62" ry="5.91" transform="translate(526.02 1646.65) rotate(-46.41)"/><ellipse class="cls-6" cx="2168.64" cy="139.82" rx="5.62" ry="5.91" transform="translate(572.18 1522.37) rotate(-46.41)"/><ellipse class="cls-6" cx="2146.17" cy="118.43" rx="5.62" ry="5.91" transform="translate(580.7 1499.46) rotate(-46.41)"/><ellipse class="cls-6" cx="2310.36" cy="274.72" rx="5.62" ry="5.91" transform="translate(518.49 1666.92) rotate(-46.41)"/><ellipse class="cls-6" cx="2210.92" cy="140.39" rx="5.62" ry="5.91" transform="translate(584.9 1553.18) rotate(-46.41)"/><ellipse class="cls-6" cx="2230.8" cy="159.31" rx="5.62" ry="5.91" transform="translate(577.37 1573.45) rotate(-46.41)"/><ellipse class="cls-6" cx="2250.67" cy="178.23" rx="5.62" ry="5.91" transform="translate(569.84 1593.72) rotate(-46.41)"/><ellipse class="cls-6" cx="2270.55" cy="197.15" rx="5.62" ry="5.91" transform="translate(562.31 1613.99) rotate(-46.41)"/><ellipse class="cls-6" cx="2290.42" cy="216.06" rx="5.62" ry="5.91" transform="translate(554.78 1634.26) rotate(-46.41)"/><ellipse class="cls-6" cx="2310.3" cy="234.98" rx="5.62" ry="5.91" transform="translate(547.25 1654.53) rotate(-46.41)"/><ellipse class="cls-6" cx="2188.45" cy="119" rx="5.62" ry="5.91" transform="translate(593.42 1530.26) rotate(-46.41)"/><ellipse class="cls-6" cx="2165.98" cy="97.62" rx="5.62" ry="5.91" transform="translate(601.93 1507.34) rotate(-46.41)"/><ellipse class="cls-6" cx="2330.17" cy="253.9" rx="5.62" ry="5.91" transform="translate(539.72 1674.8) rotate(-46.41)"/></g></g></g></g></svg>