<svg xmlns="http://www.w3.org/2000/svg" viewBox="0 0 119.61 119.63"><defs><style>.cls-1{opacity:0.25;}.cls-2{fill:#ffb111;stroke:#efb114;stroke-miterlimit:10;stroke-width:0.63px;}</style></defs><title>1</title><g id="Layer_2" data-name="Layer 2"><g id="Layer_1-2" data-name="Layer 1"><g class="cls-1"><path class="cls-2" d="M119.3,61a3,3,0,0,0-.22.39,5.93,5.93,0,0,1-6,4.4c-1.9,0-3.8,0-5.69,0a2.18,2.18,0,0,0-2.27,1.6c-.62,1.63-1.28,3.24-2,4.82a2.17,2.17,0,0,0,.49,2.73q2,2,4,4a5.9,5.9,0,0,1,0,8.7c-2.68,2.73-5.4,5.44-8.13,8.13a5.9,5.9,0,0,1-8.7,0c-2-2-4.06-4-6.08-6.07-1-1-1.15-2.22-.34-3.07s2-.8,3.15.29c2,1.93,3.89,3.88,5.84,5.82C94.74,94,95.68,94,97,92.71q3.87-3.85,7.72-7.72c1.21-1.22,1.21-2.18,0-3.4s-2.69-2.68-4-4a5.87,5.87,0,0,1-1.2-6.94c.7-1.59,1.35-3.2,2-4.82a5.8,5.8,0,0,1,5.57-4c1.94,0,3.87,0,5.81,0,1.77,0,2.46-.72,2.47-2.48q0-5.46,0-10.92c0-1.75-.72-2.46-2.47-2.48-1.9,0-3.8,0-5.7,0a5.84,5.84,0,0,1-5.68-4c-.65-1.65-1.33-3.3-2-4.92a5.83,5.83,0,0,1,1.17-6.75c1.35-1.39,2.75-2.73,4.1-4.12,1.21-1.23,1.21-2.18,0-3.4q-3.88-3.91-7.8-7.8c-1.23-1.23-2.18-1.23-3.4,0s-2.62,2.63-4,3.94a5.91,5.91,0,0,1-7.13,1.25c-1.55-.69-3.13-1.33-4.71-1.94a5.88,5.88,0,0,1-4-5.68c0-1.9,0-3.8,0-5.7S73,4.28,71.23,4.28H60.31c-1.76,0-2.46.69-2.48,2.46s0,3.57,0,5.35a6,6,0,0,1-4.32,6.15c-1.52.58-3,1.22-4.49,1.88a5.85,5.85,0,0,1-6.94-1.19c-1.36-1.33-2.69-2.69-4-4s-2.18-1.22-3.4,0q-3.91,3.88-7.8,7.8c-1.24,1.25-1.23,2.2,0,3.48,2,2,4,4,6,6a1.91,1.91,0,0,1,.45,2.42,1.76,1.76,0,0,1-2,1A2.8,2.8,0,0,1,30,34.9c-2.16-2.11-4.32-4.22-6.4-6.42a5.77,5.77,0,0,1,0-8.17q4.23-4.39,8.62-8.62a5.82,5.82,0,0,1,8.19,0c1.43,1.35,2.82,2.76,4.19,4.18a2.26,2.26,0,0,0,2.92.53c1.54-.73,3.12-1.35,4.71-2a2.17,2.17,0,0,0,1.6-2.27c0-1.47.07-2.95,0-4.41C53.6,4.09,55,1.49,58.65.31H72.83c3.87,1.61,4.85,3.09,4.85,7.31,0,1.55,0,3.1,0,4.64a2.12,2.12,0,0,0,1.54,2.19c1.62.63,3.24,1.26,4.81,2A2.21,2.21,0,0,0,86.84,16q2-2,4-4a5.9,5.9,0,0,1,8.7,0q4.05,4,8,8a5.93,5.93,0,0,1,0,8.86c-1.33,1.36-2.67,2.69-4,4a2.1,2.1,0,0,0-.47,2.63c.68,1.51,1.33,3.05,1.93,4.59s1,1.86,2.64,1.86h4.17c4.36,0,5.79.94,7.43,4.86Z"/><path class="cls-2" d="M79.59,75.35A5.8,5.8,0,0,0,74,69.74c-.74,0-1.47,0-2.21,0a2.21,2.21,0,0,1-2.23-1.51c-1.25-2.86-1.26-2.85.94-5.1l.42-.42a5.93,5.93,0,0,0-.09-8.29q-2.77-2.88-5.68-5.66a5.87,5.87,0,0,0-8.27,0,12,12,0,0,1-1.59,1.53,2.89,2.89,0,0,1-2,.52c-3.34-1.19-3.53-1.15-3.46-4.37a7.12,7.12,0,0,0,0-.8A5.77,5.77,0,0,0,44.25,40c-2.87-.09-5.74-.07-8.6,0a5.6,5.6,0,0,0-5.34,4.37c-.24,1.12-.08,2.32-.28,3.46a2.8,2.8,0,0,1-.82,1.78c-2.15,1.71-3.62,1.57-5.54-.35-.26-.26-.54-.54-.84-.8A5.79,5.79,0,0,0,19.2,47a6.17,6.17,0,0,0-4.39,1.69C12.89,50.6,11,52.53,9.08,54.47a5.88,5.88,0,0,0-1.6,5,7.31,7.31,0,0,0,2.78,4.42A2.44,2.44,0,0,1,10.93,67c-1.17,2.69-1.14,2.69-4.11,2.71H6A5.87,5.87,0,0,0,.35,75.53c0,2.74,0,5.51,0,8.25A5.71,5.71,0,0,0,4.81,89.3,13.94,13.94,0,0,0,8,89.53,2.26,2.26,0,0,1,10.39,91c1.24,2.88,1.27,2.88-.93,5.1L9,96.54a5.9,5.9,0,0,0,0,8.2c1.87,2,3.83,4,5.82,5.82a5.86,5.86,0,0,0,8.2,0c.52-.48,1-1,1.49-1.47a2.08,2.08,0,0,1,2.43-.51c3,1.14,3.07,1.19,3.09,4.4a6.23,6.23,0,0,0,5.65,6.3q4.29.14,8.6,0a5.8,5.8,0,0,0,5.54-5.53,13,13,0,0,1,.07-2.43,2.75,2.75,0,0,1,1-1.78c3.22-1.54,3.24-1.8,5.51.6a7.94,7.94,0,0,0,.59.57,5.88,5.88,0,0,0,8-.07q3-2.83,5.82-5.84a5.84,5.84,0,0,0,0-8.26c-.42-.46-.85-.91-1.31-1.33A2.2,2.2,0,0,1,69,92.47c1.19-2.9,1.16-2.92,4.3-2.94.28,0,.55,0,.83,0A5.84,5.84,0,0,0,79.59,84Q79.69,79.66,79.59,75.35Zm-4,8.15a1.91,1.91,0,0,1-2,2.06c-.64,0-1.31,0-2,0a10.32,10.32,0,0,0-1.59.21c-4.91,1.28-6.94,8.46-3.41,12.08,2.67,2.76,2.67,2.9,0,5.63-1.28,1.27-2.56,2.57-3.87,3.84s-2.22,1.19-3.41,0-2.37-2.41-4.14-2.81c-4.44-1-9.23,2.67-9.26,7.18,0,3.34-.27,3.58-3.64,3.58-2,0-4,0-5.92,0A2,2,0,0,1,34,113c0-.69,0-1.39,0-2.08a5.09,5.09,0,0,0-2.17-4.3,16.67,16.67,0,0,0-5.07-2.15c-2.37-.52-4.19.83-5.78,2.5s-2.43,1.66-4.06,0-3.14-3.11-4.68-4.67c-1.17-1.2-1.19-2.24,0-3.41a8.74,8.74,0,0,0,2.81-4.16c1-4.44-2.69-9.21-7.2-9.21h-1c-1.83,0-2.52-.7-2.53-2.53v-7c0-1.7.71-2.34,2.43-2.4a24.61,24.61,0,0,0,3.21-.22c3.85-.65,7-7.89,4.15-11.21-.56-.68-1.19-1.31-1.82-2-1.17-1.22-1.19-2.22,0-3.4,1.66-1.68,3.32-3.36,5-5,1.2-1.21,2.2-1.21,3.39,0s2.62,2.58,4.61,2.9A7.71,7.71,0,0,0,34,47.4c0-.45,0-.92,0-1.38a1.91,1.91,0,0,1,2-2c2.59,0,5.19,0,7.78,0a1.89,1.89,0,0,1,2,2c0,.57,0,1.17,0,1.75a10.93,10.93,0,0,0,.2,1.71c.71,3.16,3.28,4.23,5.94,5.1a5.74,5.74,0,0,0,6-1.41c.52-.48,1-1,1.5-1.47a1.88,1.88,0,0,1,2.88,0c1.91,1.82,3.76,3.69,5.58,5.59a6.75,6.75,0,0,1,.79,1.47,15.78,15.78,0,0,1-1.33,1.82,7.88,7.88,0,0,0-2.66,4.37,7.73,7.73,0,0,0,7.38,8.79c.47,0,.92,0,1.4,0a1.87,1.87,0,0,1,2,2C75.68,78.31,75.68,80.91,75.64,83.5Z"/><path class="cls-2" d="M65,28c11.76.63,19.85,5.66,24.4,15.78a25.49,25.49,0,0,1-5,27.81,2.91,2.91,0,0,1-1.71,1,2.33,2.33,0,0,1-1.79-.9,3.24,3.24,0,0,1,0-2c.08-.36.53-.65.81-1,5.72-6.45,7.46-13.87,4.66-22s-8.69-13-17.12-14.41c-7-1.18-13.16.86-18.41,5.65-.17.15-.32.33-.5.48a2,2,0,0,1-2.91-.07,2,2,0,0,1,.2-2.8,23.9,23.9,0,0,1,10.79-6.33C60.85,28.54,63.32,28.27,65,28Z"/><path class="cls-2" d="M40,61.81a17.8,17.8,0,1,0,.42,35.59c9.91-.4,17.39-6.92,17.36-17.92A17.69,17.69,0,0,0,40,61.81Zm0,31.67A13.85,13.85,0,1,1,53.83,79.62,13.82,13.82,0,0,1,40,93.48Z"/></g></g></g></svg>