<svg xmlns="http://www.w3.org/2000/svg" viewBox="0 0 126.29 111.8"><defs><style>.cls-1{opacity:0.25;}.cls-2{fill:#ffb111;stroke-width:0.63px;}.cls-2,.cls-3{stroke:#efb114;stroke-miterlimit:10;}.cls-3{fill:none;stroke-width:3px;}</style></defs><title>2</title><g id="Layer_2" data-name="Layer 2"><g id="Layer_1-2" data-name="Layer 1"><g class="cls-1"><path class="cls-2" d="M118.65,99.92c-4.55.16-9.08,0-13.63,0-.45,0-.92,0-1.5-.06V11.06c0-.46,0-.91,0-1.34-.07-1.4-.69-2-2.08-2-1.92,0-3.85,0-5.77,0s-2.77.51-2.81,1.77.86,1.91,2.81,1.91h4.06v88.5H87.32V98.29c0-5.2,0-10.41,0-15.59,0-1.7-.55-2.36-2.09-2.36q-6,0-12,0a1.72,1.72,0,0,0-2,1.71A1.79,1.79,0,0,0,73.12,84c.69,0,1.36,0,2.09,0V99.88H51.09V84.06c.5,0,.94,0,1.39,0,3.88,0,7.76,0,11.64,0a6.56,6.56,0,0,0,1.34-.09A1.67,1.67,0,0,0,66.89,82a1.63,1.63,0,0,0-1.5-1.65,5.94,5.94,0,0,0-1.11,0H41.59c-2.12,0-2.61.49-2.61,2.59q0,7.74,0,15.46v1.5H26.46V98.47c0-3.28,0-6.56,0-9.81,0-1.39-.69-2.17-1.8-2.19s-1.88.76-1.88,2.21c0,3.15,0,6.29,0,9.44v1.82H6.08A5.74,5.74,0,0,0,.36,105a5.67,5.67,0,0,0,4.09,6.18,11.83,11.83,0,0,0,3.05.27q55.62,0,111.28,0c.69,0,1.39,0,2.07-.07a5.63,5.63,0,0,0,4.67-3.5c.15-.33.31-.65.45-1v-2.44C124.74,101,122.24,99.77,118.65,99.92ZM79,84.08h4.57c0,.41.09.78.09,1.12,0,4.51,0,9,0,13.49,0,1-.3,1.28-1.32,1.28C79,99.94,79,100,79,96.58Zm-36.23,0h4.49V99.9H42.75ZM119.2,107.8H7.35a9.23,9.23,0,0,1-1.83-.12,1.89,1.89,0,0,1-1.48-2,1.87,1.87,0,0,1,1.63-2A7.71,7.71,0,0,1,7,103.63H119.25c2,0,3,.64,3,2S121.3,107.8,119.2,107.8Z"/><path class="cls-2" d="M86.07,7.67H49.27V2.76c0-1.89-.56-2.43-2.41-2.43-4.51,0-9,0-13.5,0-1.94,0-2.48.52-2.48,2.46,0,1.58,0,3.17,0,4.88H25.71c-2.55,0-2.93.4-2.93,2.92V79.42a11.83,11.83,0,0,0,0,1.34,1.8,1.8,0,0,0,3.57,0,11.65,11.65,0,0,0,.06-1.57V11.35H86.14c1.36-.06,2.17-.75,2.19-1.83S87.52,7.7,86.07,7.67ZM45.56,7c0,.24-.42.62-.64.62-3.39.06-6.76,0-10.25,0V4.08H45.58C45.58,5.09,45.63,6.05,45.56,7Z"/><path class="cls-3" d="M45,21.28v8.5H41.61c-1.71,0-3.43,0-5.15,0-.56,0-.92-.11-.92-.8,0-2.54,0-5.06,0-7.7Z"/><rect class="cls-3" x="58.46" y="21.28" width="9.39" height="8.43"/><rect class="cls-3" x="81.3" y="21.24" width="9.37" height="8.41"/><path class="cls-3" d="M45.05,50.33c0,.16-.4.51-.62.51-2.9,0-5.78,0-8.79,0v-8.5h9.45C45.09,45.06,45.11,47.68,45.05,50.33Z"/><path class="cls-3" d="M67.85,42.37v8.49c-3,0-5.93,0-8.83,0-.21,0-.63-.47-.63-.74,0-2.54,0-5,0-7.71Z"/><rect class="cls-3" x="81.28" y="42.37" width="9.41" height="8.43"/><rect class="cls-3" x="35.63" y="63.69" width="9.37" height="8.45"/><rect class="cls-3" x="58.41" y="63.74" width="9.44" height="8.39"/><rect class="cls-3" x="81.26" y="63.71" width="9.41" height="8.39"/></g></g></g></svg>