<svg xmlns="http://www.w3.org/2000/svg" viewBox="0 0 113.75 113.84"><defs><style>.cls-1{opacity:0.25;}.cls-2,.cls-4{fill:#ffb111;}.cls-2{stroke:#eeb117;stroke-width:0.61px;}.cls-2,.cls-3{stroke-miterlimit:10;}.cls-3{fill:none;stroke:#ffb111;stroke-width:3.45px;}</style></defs><title>3</title><g id="Layer_2" data-name="Layer 2"><g id="Layer_1-2" data-name="Layer 1"><g class="cls-1"><path class="cls-2" d="M106,109.74V39.24c0-2.43-.24-2.73-2.59-3.32Q86.3,31.65,69.14,27.37c-.72-.19-.93-.45-.93-1.17,0-2.61,0-5.24,0-7.84,0-2.32-.21-2.59-2.47-3.2L18.08,2.46C15.54,1.77,13,1,10.48.31H9.15A2.77,2.77,0,0,0,7.82,3.1q0,52.56,0,105.1v1.59H.31v3.75H113.45v-3.8Zm-69.94,0H24.94V91H36.06Zm15.08,0H40V91H51.14Zm13.27,0H55V89.82c0-2.16-.54-2.7-2.68-2.7H23.71c-2.12,0-2.62.54-2.62,2.72q0,9.27,0,18.57v1.29H11.69V4.66q26.37,7,52.72,14.06Zm26.41,0H79.64v-15H90.82Zm11.35,0H94.69V93.53c0-2-.59-2.62-2.64-2.62H78.33c-2,0-2.56.6-2.56,2.59v16.22H68.3V31c11.31,2.83,22.57,5.64,33.87,8.48Z"/><path class="cls-3" d="M34.28,28.63c0,1.14,0,2.28,0,3.43,0,1.48-.71,2.21-2.16,2.22-2.35,0-4.71,0-7.06,0A1.91,1.91,0,0,1,23,32.12c0-2.35,0-4.69,0-7.06A1.9,1.9,0,0,1,25.09,23c2.37,0,4.72,0,7.07,0a1.93,1.93,0,0,1,2.12,2.14C34.32,26.29,34.28,27.46,34.28,28.63Z"/><path class="cls-3" d="M53.15,25.18c0,1.14,0,2.28,0,3.44s0,2.28,0,3.42c0,1.48-.68,2.21-2.13,2.24q-3.52.06-7.06,0a1.87,1.87,0,0,1-2.11-2.12c0-2.35,0-4.72,0-7.07A1.88,1.88,0,0,1,43.94,23c2.37,0,4.72,0,7.08,0C52.47,23,53.13,23.69,53.15,25.18Z"/><path class="cls-3" d="M34.27,55.06c0,2.49,0,5,0,7.5a1.82,1.82,0,0,1-2,1.9c-2.43,0-4.87,0-7.29,0a1.81,1.81,0,0,1-2-1.9c0-2.5,0-5,0-7.5a1.81,1.81,0,0,1,2-1.9h7.29A1.84,1.84,0,0,1,34.27,55.06Z"/><path class="cls-3" d="M34.28,40.19c0,2.35,0,4.72,0,7.07,0,1.45-.77,2.1-2.26,2.12-1.14,0-2.28,0-3.42,0s-2.28,0-3.42,0c-1.49,0-2.21-.69-2.23-2.14,0-2.35,0-4.7,0-7.07a1.88,1.88,0,0,1,2.14-2.09c2.35,0,4.7,0,7.07,0A1.88,1.88,0,0,1,34.28,40.19Z"/><path class="cls-3" d="M34.27,70.32c0,2.4,0,4.78,0,7.18a1.84,1.84,0,0,1-2.08,2c-2.38,0-4.78,0-7.17,0A1.86,1.86,0,0,1,23,77.49c-.05-1.21,0-2.42,0-3.65s0-2.35,0-3.52A1.9,1.9,0,0,1,25,68.24c2.41,0,4.79,0,7.19,0A1.9,1.9,0,0,1,34.27,70.32Z"/><path class="cls-3" d="M53.15,55.17q0,3.63,0,7.29a1.87,1.87,0,0,1-2,2c-1.22,0-2.43,0-3.64,0s-2.44,0-3.65,0a1.83,1.83,0,0,1-2-2c0-2.42,0-4.86,0-7.29a1.83,1.83,0,0,1,2-2h7.29A1.87,1.87,0,0,1,53.15,55.17Z"/><path class="cls-3" d="M53.15,70.35c0,2.38,0,4.79,0,7.17a1.88,1.88,0,0,1-2,2H47.52c-1.15,0-2.29,0-3.43,0-1.58,0-2.22-.66-2.24-2.21,0-2.32,0-4.63,0-6.95A1.91,1.91,0,0,1,44,68.24c2.32,0,4.63,0,7,0A1.92,1.92,0,0,1,53.15,70.35Z"/><path class="cls-3" d="M53.15,40q0,3.7,0,7.41a1.87,1.87,0,0,1-2,2c-2.47,0-4.93,0-7.4,0a1.83,1.83,0,0,1-1.93-2c0-1.24,0-2.5,0-3.75s0-2.36,0-3.54.66-2,1.95-2c2.45,0,4.92,0,7.39,0A1.82,1.82,0,0,1,53.15,40Z"/><path class="cls-4" d="M77.73,72c1.15,0,2.29,0,3.43,0,1.43,0,2.14.69,2.16,2.08q.06,3.6,0,7.18a1.84,1.84,0,0,1-2.06,2.06q-3.58,0-7.17,0a1.87,1.87,0,0,1-2.08-2c0-2.39,0-4.79,0-7.18A1.91,1.91,0,0,1,74.09,72C75.3,72,76.52,72,77.73,72Zm-1.87,3.84v3.64h3.61V75.85Z"/><path class="cls-4" d="M92.76,83.33c-1.18,0-2.35,0-3.53,0-1.38,0-2.07-.68-2.09-2q-.06-3.65,0-7.29a1.84,1.84,0,0,1,2-2c2.42,0,4.86,0,7.28,0a1.87,1.87,0,0,1,2,2c0,2.43,0,4.86,0,7.28a1.84,1.84,0,0,1-2,2C95.19,83.36,94,83.33,92.76,83.33Zm1.92-3.84c0-1.1,0-2.08,0-3.07,0-.21-.26-.59-.42-.6-1.08,0-2.17,0-3.27,0v3.7Z"/><path class="cls-4" d="M77.67,68.23c-1.18,0-2.36,0-3.54,0a1.88,1.88,0,0,1-2.11-2q-.08-3.64,0-7.29a1.86,1.86,0,0,1,2-2q3.64,0,7.29,0a1.79,1.79,0,0,1,2,1.9c0,2.5,0,5,0,7.51a1.78,1.78,0,0,1-2,1.87C80.1,68.25,78.88,68.23,77.67,68.23ZM75.83,64.4h3.65V60.77H75.83Z"/><path class="cls-4" d="M92.75,68.23c-1.21,0-2.43,0-3.64,0a1.78,1.78,0,0,1-2-1.91q-.08-3.69,0-7.4a1.83,1.83,0,0,1,2-2q3.65,0,7.29,0a1.84,1.84,0,0,1,2,1.92c0,2.46,0,4.93,0,7.4a1.85,1.85,0,0,1-2,2C95.18,68.25,94,68.23,92.75,68.23ZM91,60.75v3.62h3.63V60.75Z"/><path class="cls-4" d="M77.75,41.85c1.22,0,2.43,0,3.65,0a1.73,1.73,0,0,1,1.9,1.84c.06,2.5,0,5,0,7.51a1.8,1.8,0,0,1-2,1.93q-3.64.06-7.29,0a1.87,1.87,0,0,1-2-2q-.08-3.69,0-7.4a1.82,1.82,0,0,1,2-1.91C75.25,41.83,76.5,41.85,77.75,41.85Zm1.72,7.48V45.68H75.86v3.65Z"/><path class="cls-4" d="M92.78,53.16c-1.14,0-2.28,0-3.42,0-1.5,0-2.2-.66-2.22-2.12,0-2.36,0-4.71,0-7.07a1.86,1.86,0,0,1,2.11-2.11q3.54,0,7.07,0A1.9,1.9,0,0,1,98.45,44c0,2.35,0,4.71,0,7.06a1.93,1.93,0,0,1-2.13,2.13C95.14,53.18,94,53.16,92.78,53.16ZM91,45.68V49.3h3.65V45.68Z"/></g></g></g></svg>