<svg xmlns="http://www.w3.org/2000/svg" viewBox="0 0 108.13 108.14"><defs><style>.cls-1{opacity:0.25;}.cls-2{fill:#ffb111;stroke:#ecb01a;stroke-miterlimit:10;stroke-width:0.63px;}</style></defs><title>4</title><g id="Layer_2" data-name="Layer 2"><g id="Layer_1-2" data-name="Layer 1"><g class="cls-1"><path class="cls-2" d="M103.35,103.39V16.74c0-2.21-.77-3-2.95-3H86.55q-10.44,0-20.89,0a2.25,2.25,0,0,0-2.29,1.14,5.14,5.14,0,0,0-.32,2q0,42.45,0,84.92v1.43H45.09V44.13c0-.39,0-.77,0-1.16a2.21,2.21,0,0,0-2.38-2.34q-17.73,0-35.48,0A2.25,2.25,0,0,0,4.79,43c0,.33,0,.69,0,1v59.35H.32v1.18c0,2.67.61,3.28,3.27,3.28H104.87a2.8,2.8,0,0,0,2.94-1.68v-2.75Zm-62.81-.19H36.16v-1.44c0-1.64,0-3.29,0-4.93a2.24,2.24,0,0,0-2.42-2.45c-5.88,0-11.75,0-17.64,0a2.21,2.21,0,0,0-2.34,2.39c0,2.13,0,4.25,0,6.45H9.35v-58H40.54Zm58.21,0H87.66v-2.5c0-2,0-4.06,0-6.1a2.18,2.18,0,0,0-2.26-2.45c-3.71-.07-7.43-.07-11.13,0-1.48,0-2.27,1-2.28,2.58,0,2.41,0,4.81,0,7.24v1.22h-4.4V85.41H89.84V81H67.59V74.26H89.84V69.78H67.57v-6.7H89.86v-4.5H67.57V51.8H89.86V47.4H67.59V40.66H89.84V36.19H67.56V29.48H89.82V25H67.57V18.27H98.75Z"/><path class="cls-2" d="M86,.32a2.72,2.72,0,0,1,1.69,2.93c-.07,2,0,3.92,0,6H83.25V4.87h-56V36.09H22.73V34.94q0-15.78,0-31.58a3,3,0,0,1,1.54-3Z"/><path class="cls-2" d="M51.87,18.16V11.57h4.36v6.59Z"/><path class="cls-2" d="M56.26,25v6.57H51.88V25Z"/><path class="cls-2" d="M56.24,45H51.87V38.44h4.37Z"/><path class="cls-2" d="M56.26,51.89v6.57H51.88V51.89Z"/><path class="cls-2" d="M51.85,71.89V65.34h4.4v6.55Z"/><path class="cls-2" d="M51.85,85.34V78.76h4.38v6.58Z"/><path class="cls-2" d="M38.31,11.57v6.59H34V11.57Z"/><path class="cls-2" d="M47.29,11.58v6.57H43V11.58Z"/><path class="cls-2" d="M34,25h4.33v6.58H34Z"/><path class="cls-2" d="M43,25h4.3V31.6H43Z"/><path class="cls-2" d="M36.09,89.86H31.74V49.67h4.35Z"/><path class="cls-2" d="M18.14,89.86H13.83V49.67h4.31Z"/><path class="cls-2" d="M27.13,89.86H22.82V49.67h4.31Z"/></g></g></g></svg>