<svg xmlns="http://www.w3.org/2000/svg" viewBox="0 0 39.08 39"><defs><style>.cls-1{fill:#4cb1e0;}</style></defs><title>Asset 10</title><g id="Layer_2" data-name="Layer 2"><g id="Layer_1-2" data-name="Layer 1"><path class="cls-1" d="M39.08,33.47A5.22,5.22,0,0,1,37.44,36a9.86,9.86,0,0,1-5.79,2.94,11.87,11.87,0,0,1-4.24-.29,28.61,28.61,0,0,1-11.2-5.24A53.13,53.13,0,0,1,3.12,19.56,18.31,18.31,0,0,1,.21,12.17,12.79,12.79,0,0,1,1.31,4,11.43,11.43,0,0,1,4.1.73,3.06,3.06,0,0,1,8.26.91q3,3,6,6a3.1,3.1,0,0,1,0,4.48c-.89.92-1.81,1.82-2.72,2.72a4.15,4.15,0,0,1-.36.28c.65,1.12,1.25,2.19,1.91,3.23a27.58,27.58,0,0,0,10.4,9.63,10.63,10.63,0,0,1,.93.53c.27.19.42.11.63-.1.87-.89,1.76-1.77,2.64-2.65a3.15,3.15,0,0,1,4.73,0c1.76,1.76,3.5,3.52,5.26,5.26a4.37,4.37,0,0,1,1.47,2.3Z"/></g></g></svg>