<svg xmlns="http://www.w3.org/2000/svg" viewBox="0 0 110.04 34.35"><defs><style>.cls-1{opacity:0.58;}.cls-2{fill:#595959;}</style></defs><title>Asset 5</title><g id="Layer_2" data-name="Layer 2"><g id="Layer_1-2" data-name="Layer 1"><g class="cls-1"><path class="cls-2" d="M79,24.21a2,2,0,0,0,2.38-1A62.78,62.78,0,0,1,93.26,6.43a55.34,55.34,0,0,1,5.63-4.6,6.33,6.33,0,0,1,2.52-.94c.94-.21,1.44.32,1.46,1.29a6.61,6.61,0,0,1-1.31,3.49c-.1.18-.43.22-.65.32l-.16-.17.42-1A18.58,18.58,0,0,0,102,2.69c.16-.65-.2-.92-.79-.6a11,11,0,0,0-2,1.34,50.08,50.08,0,0,0-9.47,11.64c-1.07,1.73-2.11,3.47-3.15,5.22-.21.35-.37.73-.56,1.1l.13.14c.31-.21.64-.39.93-.62A69.26,69.26,0,0,0,97.87,10.09c.3-.37.55-.85,1.28-.62a6.67,6.67,0,0,1-.38.67,59.91,59.91,0,0,1-13.42,13,1.51,1.51,0,0,0-.57.58c-.7,1.9-1.36,3.82-2,5.73a.59.59,0,0,0,0,.34c.13.46.18,1.05.49,1.33s.9,0,1.22-.29A9.05,9.05,0,0,0,86,29.16c1.53-2.06,3-4.19,4.52-6.24a17.82,17.82,0,0,1,5-4.71,6.54,6.54,0,0,1,1.81-.7,2.3,2.3,0,0,1,2.43,1c.7-1.37,1.89-1,3-1,.28,0,.56,0,1,0a5.87,5.87,0,0,1-.32.82q-2.9,4.89-5.78,9.77a17.87,17.87,0,0,0-1.13,2.17c-.11.25,0,.6,0,.91a2.46,2.46,0,0,0,.88-.16,12.83,12.83,0,0,0,3.45-3.44c.35-.47.65-1,1-1.41a2.72,2.72,0,0,1,.78-.46l.17.2a3.62,3.62,0,0,1-.26.6,27.32,27.32,0,0,1-4.69,5.64A20.05,20.05,0,0,1,95.06,34,1.79,1.79,0,0,1,93,34a1.88,1.88,0,0,1-.57-2c0-.14,0-.28,0-.61a13.48,13.48,0,0,1-1,.9A15.61,15.61,0,0,1,89,34c-1.73.8-3-.11-3-2,0-.43,0-.86.08-1.49a12.71,12.71,0,0,1-1,1A24.22,24.22,0,0,1,82,33.81a2,2,0,0,1-3-1.51,6.76,6.76,0,0,1,.14-2.49c.31-1.36.79-2.68,1.19-4,.07-.24.15-.47.26-.82-.7.07-1.31.09-1.89.21-.22.05-.42.34-.56.56a25,25,0,0,1-4.71,6,17.81,17.81,0,0,1-2.57,1.82,4.87,4.87,0,0,1-1.64.54,2,2,0,0,1-2.37-1.66A6.19,6.19,0,0,1,67.15,29a21.4,21.4,0,0,1,7.34-10.19,9.72,9.72,0,0,1,3-1.5c1.88-.61,3.11.35,2.93,2.3a19.69,19.69,0,0,1-.94,3.56A8.83,8.83,0,0,1,79,24.21ZM90.12,30c-.05,1.05.55,1.49,1.22,1a6.36,6.36,0,0,0,1.82-1.68c2-3.1,4-6.24,6-9.38a.8.8,0,0,0,0-.69.75.75,0,0,0-.65-.26,4.43,4.43,0,0,0-1.4.72,25.75,25.75,0,0,0-6.5,8.82A9.6,9.6,0,0,0,90.12,30ZM77.6,25a6,6,0,0,1-3.15-2.72c-1.65,2.16-3.16,4.28-3.68,6.93a2,2,0,0,0,0,.55,1.11,1.11,0,0,0,1.66,1.05,5.43,5.43,0,0,0,1.66-1.13,37.46,37.46,0,0,0,2.4-2.91C76.87,26.28,77.19,25.69,77.6,25ZM79.67,20a4.47,4.47,0,0,0-.73-1.33c-.47-.4-1.08-.15-1.56.17a5.64,5.64,0,0,0-1.12.94A2.62,2.62,0,0,0,77.56,24a.69.69,0,0,0,.63-.18A10.12,10.12,0,0,0,79.67,20Z"/><path class="cls-2" d="M25.91,15.57c-1.17.12-2.08.32-2.67,1.43a20.29,20.29,0,0,1-5.38,6.48,10.44,10.44,0,0,1-3,1.65c-1.72.58-2.93-.36-3.1-2.16a8.76,8.76,0,0,1,1-4.54,20.07,20.07,0,0,1,7.66-9,8.35,8.35,0,0,1,2.3-1,2.28,2.28,0,0,1,3,2.72,18.48,18.48,0,0,1-.76,2.68c-.08.29-.2.56-.38,1.06a5.46,5.46,0,0,0,1.28-.42c1.16-.82,2.32-1.64,3.39-2.56,1.35-1.16,2.58-2.49,4.32-3a6,6,0,0,1,2.26-.25,1.88,1.88,0,0,1,1.75,2.07,4.12,4.12,0,0,1-2,3.69,1.2,1.2,0,0,1-1.07.05,1.29,1.29,0,0,1-.3-1A2.44,2.44,0,0,1,36,11.5c.39-.06.71-.12.66-.6s-.25-.81-.76-.86a2.68,2.68,0,0,0-2,.75,19.09,19.09,0,0,0-5.68,7.7,8.81,8.81,0,0,0-.73,2.39c-.21,1.77,1.07,2.73,2.64,1.89a11.52,11.52,0,0,0,3.08-2.37c2-2.17,3.72-4.49,5.58-6.75a17.72,17.72,0,0,1,4.63-4.22,6.72,6.72,0,0,1,2.1-.73,2,2,0,0,1,2.07,1c1-1.62,2.45-.66,3.87-1a10.57,10.57,0,0,1-.45,1L44.64,20.63a4,4,0,0,0-.47,1,.85.85,0,0,0,.16.68.66.66,0,0,0,.64,0,8.42,8.42,0,0,0,1.61-1.22c1-1.14,2-2.36,2.93-3.56.27-.33.51-.63,1-.29a1.91,1.91,0,0,1-.16.44c-1.79,2.54-3.6,5.09-6.17,6.92a6.39,6.39,0,0,1-2.26,1c-1.09.23-1.77-.48-1.77-1.61,0-.31,0-.63,0-1.1-.33.29-.56.51-.81.69a14.54,14.54,0,0,1-2.58,1.76c-1.83.76-3.18-.37-3-2.35.08-.68.25-1.35.41-2.19-.74.67-1.32,1.28-2,1.78a24.11,24.11,0,0,1-3.3,2.22,6.14,6.14,0,0,1-2.5.51,2.66,2.66,0,0,1-2.67-2.14,6.52,6.52,0,0,1,.45-4.24c.36-.86.83-1.67,1.26-2.5Zm11.88,5.92c.17.31.26.71.48.81a1.07,1.07,0,0,0,1-.06A11.73,11.73,0,0,0,41.39,20c1.89-2.94,3.68-5.94,5.49-8.94a.75.75,0,0,0,0-.67.72.72,0,0,0-.64-.24,7.15,7.15,0,0,0-2,1.18A31.17,31.17,0,0,0,38.75,19,26.45,26.45,0,0,0,37.79,21.49ZM19.5,13.29c-.86,1.35-1.68,2.48-2.33,3.71a20.36,20.36,0,0,0-1.27,3.17,1.37,1.37,0,0,0,2.23,1.55,5.61,5.61,0,0,0,1.19-1c.95-1.15,1.85-2.34,2.75-3.53.3-.4.53-.85.84-1.36A5.39,5.39,0,0,1,19.5,13.29Zm5.35-2c-.29-.53-.45-1.22-.83-1.4a2.51,2.51,0,0,0-1.64.17,2.87,2.87,0,0,0-1,.86,2.2,2.2,0,0,0-.59,2.32,2.63,2.63,0,0,0,2.25,1.56.67.67,0,0,0,.55-.25C24,13.55,24.42,12.48,24.85,11.33Z"/><path class="cls-2" d="M76.76,1.78A5.7,5.7,0,0,0,75,1.91a21.38,21.38,0,0,0-3.48,1.75,35,35,0,0,0-8.09,7.69,39.2,39.2,0,0,0-6.84,11.27,37.75,37.75,0,0,0-1.16,4.6,4.23,4.23,0,0,0,0,1.33c.28,2.63,2.48,4,4.79,2.68A14.28,14.28,0,0,0,67.7,20.62c.1-.65.18-1.46-.54-1.82a1.76,1.76,0,0,0-2,.6,8.82,8.82,0,0,0-2.47,4.32,1.23,1.23,0,0,1-.57.77,10.05,10.05,0,0,0-3.34,2.38,4.27,4.27,0,0,1-.51.36c.07-.48.09-.82.16-1.15A12.81,12.81,0,0,1,62,19.3a7.78,7.78,0,0,1,3.49-2c2-.49,3.1.36,3.18,2.36a9.82,9.82,0,0,1-1.13,4.72A19.49,19.49,0,0,1,59.85,33a7.06,7.06,0,0,1-4.35,1.09C53,33.84,51.25,32,50.84,29.26a13.22,13.22,0,0,1,1.19-7A42.33,42.33,0,0,1,61.38,8.46a29.14,29.14,0,0,1,10.09-7A8.86,8.86,0,0,1,75.54.54a4.41,4.41,0,0,1,1.9.59,1.39,1.39,0,0,0,1.47.14A8.68,8.68,0,0,1,84.13.71,19.16,19.16,0,0,1,88,2.08c1.93.93,3.78,2,5.81,3.13-.86.86-1.59,1.63-2.37,2.35-.12.11-.49.06-.67,0C89.45,6.77,88.15,6,86.84,5.22a21.35,21.35,0,0,0-5.6-2.67,11.19,11.19,0,0,0-2.08-.2.52.52,0,0,0-.61.59c0,3.27-1.44,5.92-3.46,8.35a8,8,0,0,1-3.64,2.64c-1.47.48-2.58-.28-2.48-1.83a6.72,6.72,0,0,1,.67-2.4,17,17,0,0,1,6.63-7.23l.56-.35ZM77.59,3c-.22,0-.29,0-.35,0l-.44.22a15.89,15.89,0,0,0-6.61,7.31,4.5,4.5,0,0,0-.36,1.2,1.09,1.09,0,0,0,1.57,1.3,4.34,4.34,0,0,0,1-.56A13,13,0,0,0,77.58,4.4,7.46,7.46,0,0,0,77.59,3Z"/><path class="cls-2" d="M47.43,34.31l-.74-.37A17.39,17.39,0,0,0,40.58,32c-2.13-.23-4.12,0-5.57,1.86,0,.07-.15.1-.25.16a2.94,2.94,0,0,1-.25-.24,8.4,8.4,0,0,0-6.76-3.27,32.77,32.77,0,0,0-8.18,1.05c-3.42.73-6.83,1.55-10.29,2a8.17,8.17,0,0,1-7.14-2.34A8,8,0,0,1,0,25.5a18.85,18.85,0,0,1,2.23-8.95A34.07,34.07,0,0,1,16.39,1.73,14,14,0,0,1,21.75,0c2.69-.26,4.17,1.62,3.09,4.11A8.32,8.32,0,0,1,23.17,6.4a1,1,0,0,1-1.41.12,1.18,1.18,0,0,1-.25-1.42,2.44,2.44,0,0,1,1.78-1.73c.5-.11.92-.16.89-.8a1.12,1.12,0,0,0-1.07-1.09,5.09,5.09,0,0,0-1.65.2A12,12,0,0,0,17.3,4.09C11.92,8.8,7.62,14.28,5.42,21.18a15.9,15.9,0,0,0-.73,4.32c-.11,3.72,1.85,5.88,5.55,6.42a16.63,16.63,0,0,0,6-.5c4.47-1,8.92-2,13.41-2.89a18.52,18.52,0,0,1,10.62.72,23,23,0,0,1,6.87,4.52,2.08,2.08,0,0,1,.27.32S47.44,34.17,47.43,34.31Z"/><path class="cls-2" d="M94.5,9.1c.75-.92,1.37-1.71,2-2.47a.86.86,0,0,1,.6-.23c4.7.36,8.54-1.54,12-4.49L110,1.1c-.16,1.37-3.6,4.75-6.48,6.4A12.74,12.74,0,0,1,94.5,9.1Z"/><path class="cls-2" d="M57.29,9.09c-.46.77-.9,1.56-1.4,2.31a.81.81,0,0,1-.59.26c-.81,0-1.62-.06-2.67-.11.6-.94,1.12-1.77,1.66-2.58.07-.1.3-.13.45-.14h2.44Z"/></g></g></g></svg>