<svg xmlns="http://www.w3.org/2000/svg" viewBox="0 0 86.91 71.62"><defs><style>.cls-1{opacity:0.32;}.cls-2{fill:#7ebedf;}</style></defs><title>Asset 13</title><g id="Layer_2" data-name="Layer 2"><g id="Layer_1-2" data-name="Layer 1"><g class="cls-1"><path class="cls-2" d="M37.9,55.19a15.86,15.86,0,0,1-4.8,11.53A16.39,16.39,0,0,1,21,71.54q-9.34,0-15.16-8.22A30.83,30.83,0,0,1,0,45q0-10.23,5.75-21.7T17.48,5.92Q23.48,0,25.13,0q1.1,0,4.61,2.65l1.1.66c1.83,1.25,2.74,2.24,2.74,3q0,.76-3,4.94Q22.45,23,22.44,29.78q0,5.16,7.73,10.72T37.9,55.19Zm49,.08A15.75,15.75,0,0,1,82.06,66.8,16.39,16.39,0,0,1,70,71.62q-9.34,0-15.15-8.22A30.77,30.77,0,0,1,49,45.1q0-14.73,10.66-29.88T74.15.08c.73,0,2.26.88,4.61,2.65l1.09.66c1.83,1.25,2.75,2.24,2.75,3,0,.51-1,2.16-3,4.94Q71.35,23,71.35,29.86q0,5.16,7.78,10.73T86.91,55.27Z"/></g></g></g></svg>